%TF.GenerationSoftware,KiCad,Pcbnew,8.0.6*%
%TF.CreationDate,2024-12-21T10:40:26+05:30*%
%TF.ProjectId,esp_Extension,6573705f-4578-4746-956e-73696f6e2e6b,rev?*%
%TF.SameCoordinates,Original*%
%TF.FileFunction,Drillmap*%
%TF.FilePolarity,Positive*%
%FSLAX45Y45*%
G04 Gerber Fmt 4.5, Leading zero omitted, Abs format (unit mm)*
G04 Created by KiCad (PCBNEW 8.0.6) date 2024-12-21 10:40:26*
%MOMM*%
%LPD*%
G01*
G04 APERTURE LIST*
%ADD10C,0.050000*%
%ADD11C,0.200000*%
%ADD12C,0.100000*%
%ADD13C,0.110000*%
%ADD14C,0.130000*%
G04 APERTURE END LIST*
D10*
X3650000Y-3750000D02*
X13550000Y-3750000D01*
X13550000Y-13700000D01*
X3650000Y-13700000D01*
X3650000Y-3750000D01*
D11*
D12*
X5254510Y-11833200D02*
X5284510Y-11863200D01*
X5284510Y-11833200D02*
X5254510Y-11863200D01*
X5519980Y-10419100D02*
X5549980Y-10449100D01*
X5549980Y-10419100D02*
X5519980Y-10449100D01*
X7473390Y-10802200D02*
X7503390Y-10832200D01*
X7503390Y-10802200D02*
X7473390Y-10832200D01*
X9023020Y-8200130D02*
X9053020Y-8230130D01*
X9053020Y-8200130D02*
X9023020Y-8230130D01*
X11479600Y-10802200D02*
X11509600Y-10832200D01*
X11509600Y-10802200D02*
X11479600Y-10832200D01*
X11852600Y-10419100D02*
X11882600Y-10449100D01*
X11882600Y-10419100D02*
X11852600Y-10449100D01*
X12290000Y-5369000D02*
G75*
G02*
X12210000Y-5369000I-40000J0D01*
G01*
X12210000Y-5369000D02*
G75*
G02*
X12290000Y-5369000I40000J0D01*
G01*
X12290000Y-6131000D02*
G75*
G02*
X12210000Y-6131000I-40000J0D01*
G01*
X12210000Y-6131000D02*
G75*
G02*
X12290000Y-6131000I40000J0D01*
G01*
X11922500Y-4255000D02*
X11922500Y-4345000D01*
X11877500Y-4300000D02*
X11967500Y-4300000D01*
X12176500Y-4255000D02*
X12176500Y-4345000D01*
X12131500Y-4300000D02*
X12221500Y-4300000D01*
X4606556Y-6985356D02*
X4606556Y-6914644D01*
X4535844Y-6914644D01*
X4535844Y-6985356D01*
X4606556Y-6985356D01*
X4606556Y-7239356D02*
X4606556Y-7168644D01*
X4535844Y-7168644D01*
X4535844Y-7239356D01*
X4606556Y-7239356D01*
X4606556Y-7493356D02*
X4606556Y-7422644D01*
X4535844Y-7422644D01*
X4535844Y-7493356D01*
X4606556Y-7493356D01*
X4606556Y-7747356D02*
X4606556Y-7676644D01*
X4535844Y-7676644D01*
X4535844Y-7747356D01*
X4606556Y-7747356D01*
X4606556Y-8001356D02*
X4606556Y-7930644D01*
X4535844Y-7930644D01*
X4535844Y-8001356D01*
X4606556Y-8001356D01*
X4606556Y-8255356D02*
X4606556Y-8184644D01*
X4535844Y-8184644D01*
X4535844Y-8255356D01*
X4606556Y-8255356D01*
X4606556Y-8509356D02*
X4606556Y-8438644D01*
X4535844Y-8438644D01*
X4535844Y-8509356D01*
X4606556Y-8509356D01*
X4606556Y-8763356D02*
X4606556Y-8692644D01*
X4535844Y-8692644D01*
X4535844Y-8763356D01*
X4606556Y-8763356D01*
X5085356Y-6957356D02*
X5085356Y-6886644D01*
X5014644Y-6886644D01*
X5014644Y-6957356D01*
X5085356Y-6957356D01*
X5085356Y-7211356D02*
X5085356Y-7140644D01*
X5014644Y-7140644D01*
X5014644Y-7211356D01*
X5085356Y-7211356D01*
X5085356Y-7465356D02*
X5085356Y-7394644D01*
X5014644Y-7394644D01*
X5014644Y-7465356D01*
X5085356Y-7465356D01*
X5085356Y-7719356D02*
X5085356Y-7648644D01*
X5014644Y-7648644D01*
X5014644Y-7719356D01*
X5085356Y-7719356D01*
X5085356Y-7973356D02*
X5085356Y-7902644D01*
X5014644Y-7902644D01*
X5014644Y-7973356D01*
X5085356Y-7973356D01*
X5085356Y-8227356D02*
X5085356Y-8156644D01*
X5014644Y-8156644D01*
X5014644Y-8227356D01*
X5085356Y-8227356D01*
X5085356Y-8481356D02*
X5085356Y-8410644D01*
X5014644Y-8410644D01*
X5014644Y-8481356D01*
X5085356Y-8481356D01*
X5085356Y-8735356D02*
X5085356Y-8664644D01*
X5014644Y-8664644D01*
X5014644Y-8735356D01*
X5085356Y-8735356D01*
X5085356Y-10757356D02*
X5085356Y-10686644D01*
X5014644Y-10686644D01*
X5014644Y-10757356D01*
X5085356Y-10757356D01*
X5085356Y-11011356D02*
X5085356Y-10940644D01*
X5014644Y-10940644D01*
X5014644Y-11011356D01*
X5085356Y-11011356D01*
X5085356Y-11265356D02*
X5085356Y-11194644D01*
X5014644Y-11194644D01*
X5014644Y-11265356D01*
X5085356Y-11265356D01*
X5085356Y-11519356D02*
X5085356Y-11448644D01*
X5014644Y-11448644D01*
X5014644Y-11519356D01*
X5085356Y-11519356D01*
X5085356Y-11773356D02*
X5085356Y-11702644D01*
X5014644Y-11702644D01*
X5014644Y-11773356D01*
X5085356Y-11773356D01*
X5085356Y-12027356D02*
X5085356Y-11956644D01*
X5014644Y-11956644D01*
X5014644Y-12027356D01*
X5085356Y-12027356D01*
X5085356Y-12281356D02*
X5085356Y-12210644D01*
X5014644Y-12210644D01*
X5014644Y-12281356D01*
X5085356Y-12281356D01*
X5085356Y-12535356D02*
X5085356Y-12464644D01*
X5014644Y-12464644D01*
X5014644Y-12535356D01*
X5085356Y-12535356D01*
X7371356Y-6957356D02*
X7371356Y-6886644D01*
X7300644Y-6886644D01*
X7300644Y-6957356D01*
X7371356Y-6957356D01*
X7371356Y-7211356D02*
X7371356Y-7140644D01*
X7300644Y-7140644D01*
X7300644Y-7211356D01*
X7371356Y-7211356D01*
X7371356Y-7465356D02*
X7371356Y-7394644D01*
X7300644Y-7394644D01*
X7300644Y-7465356D01*
X7371356Y-7465356D01*
X7371356Y-7719356D02*
X7371356Y-7648644D01*
X7300644Y-7648644D01*
X7300644Y-7719356D01*
X7371356Y-7719356D01*
X7371356Y-7973356D02*
X7371356Y-7902644D01*
X7300644Y-7902644D01*
X7300644Y-7973356D01*
X7371356Y-7973356D01*
X7371356Y-8227356D02*
X7371356Y-8156644D01*
X7300644Y-8156644D01*
X7300644Y-8227356D01*
X7371356Y-8227356D01*
X7371356Y-8481356D02*
X7371356Y-8410644D01*
X7300644Y-8410644D01*
X7300644Y-8481356D01*
X7371356Y-8481356D01*
X7371356Y-8735356D02*
X7371356Y-8664644D01*
X7300644Y-8664644D01*
X7300644Y-8735356D01*
X7371356Y-8735356D01*
X7371356Y-10757356D02*
X7371356Y-10686644D01*
X7300644Y-10686644D01*
X7300644Y-10757356D01*
X7371356Y-10757356D01*
X7371356Y-11011356D02*
X7371356Y-10940644D01*
X7300644Y-10940644D01*
X7300644Y-11011356D01*
X7371356Y-11011356D01*
X7371356Y-11265356D02*
X7371356Y-11194644D01*
X7300644Y-11194644D01*
X7300644Y-11265356D01*
X7371356Y-11265356D01*
X7371356Y-11519356D02*
X7371356Y-11448644D01*
X7300644Y-11448644D01*
X7300644Y-11519356D01*
X7371356Y-11519356D01*
X7371356Y-11773356D02*
X7371356Y-11702644D01*
X7300644Y-11702644D01*
X7300644Y-11773356D01*
X7371356Y-11773356D01*
X7371356Y-12027356D02*
X7371356Y-11956644D01*
X7300644Y-11956644D01*
X7300644Y-12027356D01*
X7371356Y-12027356D01*
X7371356Y-12281356D02*
X7371356Y-12210644D01*
X7300644Y-12210644D01*
X7300644Y-12281356D01*
X7371356Y-12281356D01*
X7371356Y-12535356D02*
X7371356Y-12464644D01*
X7300644Y-12464644D01*
X7300644Y-12535356D01*
X7371356Y-12535356D01*
X7835356Y-6981356D02*
X7835356Y-6910644D01*
X7764644Y-6910644D01*
X7764644Y-6981356D01*
X7835356Y-6981356D01*
X7835356Y-7235356D02*
X7835356Y-7164644D01*
X7764644Y-7164644D01*
X7764644Y-7235356D01*
X7835356Y-7235356D01*
X7835356Y-7489356D02*
X7835356Y-7418644D01*
X7764644Y-7418644D01*
X7764644Y-7489356D01*
X7835356Y-7489356D01*
X7835356Y-7743356D02*
X7835356Y-7672644D01*
X7764644Y-7672644D01*
X7764644Y-7743356D01*
X7835356Y-7743356D01*
X7835356Y-7997356D02*
X7835356Y-7926644D01*
X7764644Y-7926644D01*
X7764644Y-7997356D01*
X7835356Y-7997356D01*
X7835356Y-8251356D02*
X7835356Y-8180644D01*
X7764644Y-8180644D01*
X7764644Y-8251356D01*
X7835356Y-8251356D01*
X7835356Y-8505356D02*
X7835356Y-8434644D01*
X7764644Y-8434644D01*
X7764644Y-8505356D01*
X7835356Y-8505356D01*
X7835356Y-8759356D02*
X7835356Y-8688644D01*
X7764644Y-8688644D01*
X7764644Y-8759356D01*
X7835356Y-8759356D01*
X9385356Y-6957356D02*
X9385356Y-6886644D01*
X9314644Y-6886644D01*
X9314644Y-6957356D01*
X9385356Y-6957356D01*
X9385356Y-7211356D02*
X9385356Y-7140644D01*
X9314644Y-7140644D01*
X9314644Y-7211356D01*
X9385356Y-7211356D01*
X9385356Y-7465356D02*
X9385356Y-7394644D01*
X9314644Y-7394644D01*
X9314644Y-7465356D01*
X9385356Y-7465356D01*
X9385356Y-7719356D02*
X9385356Y-7648644D01*
X9314644Y-7648644D01*
X9314644Y-7719356D01*
X9385356Y-7719356D01*
X9385356Y-7973356D02*
X9385356Y-7902644D01*
X9314644Y-7902644D01*
X9314644Y-7973356D01*
X9385356Y-7973356D01*
X9385356Y-8227356D02*
X9385356Y-8156644D01*
X9314644Y-8156644D01*
X9314644Y-8227356D01*
X9385356Y-8227356D01*
X9385356Y-8481356D02*
X9385356Y-8410644D01*
X9314644Y-8410644D01*
X9314644Y-8481356D01*
X9385356Y-8481356D01*
X9385356Y-8735356D02*
X9385356Y-8664644D01*
X9314644Y-8664644D01*
X9314644Y-8735356D01*
X9385356Y-8735356D01*
X9385356Y-10757356D02*
X9385356Y-10686644D01*
X9314644Y-10686644D01*
X9314644Y-10757356D01*
X9385356Y-10757356D01*
X9385356Y-11011356D02*
X9385356Y-10940644D01*
X9314644Y-10940644D01*
X9314644Y-11011356D01*
X9385356Y-11011356D01*
X9385356Y-11265356D02*
X9385356Y-11194644D01*
X9314644Y-11194644D01*
X9314644Y-11265356D01*
X9385356Y-11265356D01*
X9385356Y-11519356D02*
X9385356Y-11448644D01*
X9314644Y-11448644D01*
X9314644Y-11519356D01*
X9385356Y-11519356D01*
X9385356Y-11773356D02*
X9385356Y-11702644D01*
X9314644Y-11702644D01*
X9314644Y-11773356D01*
X9385356Y-11773356D01*
X9385356Y-12027356D02*
X9385356Y-11956644D01*
X9314644Y-11956644D01*
X9314644Y-12027356D01*
X9385356Y-12027356D01*
X9385356Y-12281356D02*
X9385356Y-12210644D01*
X9314644Y-12210644D01*
X9314644Y-12281356D01*
X9385356Y-12281356D01*
X9385356Y-12535356D02*
X9385356Y-12464644D01*
X9314644Y-12464644D01*
X9314644Y-12535356D01*
X9385356Y-12535356D01*
X11671356Y-6957356D02*
X11671356Y-6886644D01*
X11600644Y-6886644D01*
X11600644Y-6957356D01*
X11671356Y-6957356D01*
X11671356Y-7211356D02*
X11671356Y-7140644D01*
X11600644Y-7140644D01*
X11600644Y-7211356D01*
X11671356Y-7211356D01*
X11671356Y-7465356D02*
X11671356Y-7394644D01*
X11600644Y-7394644D01*
X11600644Y-7465356D01*
X11671356Y-7465356D01*
X11671356Y-7719356D02*
X11671356Y-7648644D01*
X11600644Y-7648644D01*
X11600644Y-7719356D01*
X11671356Y-7719356D01*
X11671356Y-7973356D02*
X11671356Y-7902644D01*
X11600644Y-7902644D01*
X11600644Y-7973356D01*
X11671356Y-7973356D01*
X11671356Y-8227356D02*
X11671356Y-8156644D01*
X11600644Y-8156644D01*
X11600644Y-8227356D01*
X11671356Y-8227356D01*
X11671356Y-8481356D02*
X11671356Y-8410644D01*
X11600644Y-8410644D01*
X11600644Y-8481356D01*
X11671356Y-8481356D01*
X11671356Y-8735356D02*
X11671356Y-8664644D01*
X11600644Y-8664644D01*
X11600644Y-8735356D01*
X11671356Y-8735356D01*
X11671356Y-10757356D02*
X11671356Y-10686644D01*
X11600644Y-10686644D01*
X11600644Y-10757356D01*
X11671356Y-10757356D01*
X11671356Y-11011356D02*
X11671356Y-10940644D01*
X11600644Y-10940644D01*
X11600644Y-11011356D01*
X11671356Y-11011356D01*
X11671356Y-11265356D02*
X11671356Y-11194644D01*
X11600644Y-11194644D01*
X11600644Y-11265356D01*
X11671356Y-11265356D01*
X11671356Y-11519356D02*
X11671356Y-11448644D01*
X11600644Y-11448644D01*
X11600644Y-11519356D01*
X11671356Y-11519356D01*
X11671356Y-11773356D02*
X11671356Y-11702644D01*
X11600644Y-11702644D01*
X11600644Y-11773356D01*
X11671356Y-11773356D01*
X11671356Y-12027356D02*
X11671356Y-11956644D01*
X11600644Y-11956644D01*
X11600644Y-12027356D01*
X11671356Y-12027356D01*
X11671356Y-12281356D02*
X11671356Y-12210644D01*
X11600644Y-12210644D01*
X11600644Y-12281356D01*
X11671356Y-12281356D01*
X11671356Y-12535356D02*
X11671356Y-12464644D01*
X11600644Y-12464644D01*
X11600644Y-12535356D01*
X11671356Y-12535356D01*
X12235356Y-7773356D02*
X12235356Y-7702644D01*
X12164644Y-7702644D01*
X12164644Y-7773356D01*
X12235356Y-7773356D01*
X12235356Y-8027356D02*
X12235356Y-7956644D01*
X12164644Y-7956644D01*
X12164644Y-8027356D01*
X12235356Y-8027356D01*
X12235356Y-8281356D02*
X12235356Y-8210644D01*
X12164644Y-8210644D01*
X12164644Y-8281356D01*
X12235356Y-8281356D01*
X12235356Y-8535356D02*
X12235356Y-8464644D01*
X12164644Y-8464644D01*
X12164644Y-8535356D01*
X12235356Y-8535356D01*
X12235356Y-8789356D02*
X12235356Y-8718644D01*
X12164644Y-8718644D01*
X12164644Y-8789356D01*
X12235356Y-8789356D01*
X12235356Y-9727856D02*
X12235356Y-9657144D01*
X12164644Y-9657144D01*
X12164644Y-9727856D01*
X12235356Y-9727856D01*
X12235356Y-9981856D02*
X12235356Y-9911144D01*
X12164644Y-9911144D01*
X12164644Y-9981856D01*
X12235356Y-9981856D01*
X12235356Y-10235856D02*
X12235356Y-10165144D01*
X12164644Y-10165144D01*
X12164644Y-10235856D01*
X12235356Y-10235856D01*
X12235356Y-10489856D02*
X12235356Y-10419144D01*
X12164644Y-10419144D01*
X12164644Y-10489856D01*
X12235356Y-10489856D01*
X12235356Y-10743856D02*
X12235356Y-10673144D01*
X12164644Y-10673144D01*
X12164644Y-10743856D01*
X12235356Y-10743856D01*
X12235356Y-11677856D02*
X12235356Y-11607144D01*
X12164644Y-11607144D01*
X12164644Y-11677856D01*
X12235356Y-11677856D01*
X12235356Y-11931856D02*
X12235356Y-11861144D01*
X12164644Y-11861144D01*
X12164644Y-11931856D01*
X12235356Y-11931856D01*
X12235356Y-12185856D02*
X12235356Y-12115144D01*
X12164644Y-12115144D01*
X12164644Y-12185856D01*
X12235356Y-12185856D01*
X12235356Y-12439856D02*
X12235356Y-12369144D01*
X12164644Y-12369144D01*
X12164644Y-12439856D01*
X12235356Y-12439856D01*
X12235356Y-12693856D02*
X12235356Y-12623144D01*
X12164644Y-12623144D01*
X12164644Y-12693856D01*
X12235356Y-12693856D01*
D13*
X3800000Y-9955000D02*
X3855000Y-9900000D01*
X3800000Y-9845000D01*
X3745000Y-9900000D01*
X3800000Y-9955000D01*
X3800000Y-10405000D02*
X3855000Y-10350000D01*
X3800000Y-10295000D01*
X3745000Y-10350000D01*
X3800000Y-10405000D01*
X4450000Y-9955000D02*
X4505000Y-9900000D01*
X4450000Y-9845000D01*
X4395000Y-9900000D01*
X4450000Y-9955000D01*
X4450000Y-10405000D02*
X4505000Y-10350000D01*
X4450000Y-10295000D01*
X4395000Y-10350000D01*
X4450000Y-10405000D01*
D14*
X12835000Y-5335000D02*
X12965000Y-5465000D01*
X12965000Y-5335000D02*
X12835000Y-5465000D01*
X12965000Y-5400000D02*
G75*
G02*
X12835000Y-5400000I-65000J0D01*
G01*
X12835000Y-5400000D02*
G75*
G02*
X12965000Y-5400000I65000J0D01*
G01*
X12835000Y-5835000D02*
X12965000Y-5965000D01*
X12965000Y-5835000D02*
X12835000Y-5965000D01*
X12965000Y-5900000D02*
G75*
G02*
X12835000Y-5900000I-65000J0D01*
G01*
X12835000Y-5900000D02*
G75*
G02*
X12965000Y-5900000I65000J0D01*
G01*
X12835000Y-6335000D02*
X12965000Y-6465000D01*
X12965000Y-6335000D02*
X12835000Y-6465000D01*
X12965000Y-6400000D02*
G75*
G02*
X12835000Y-6400000I-65000J0D01*
G01*
X12835000Y-6400000D02*
G75*
G02*
X12965000Y-6400000I65000J0D01*
G01*
X12835000Y-6835000D02*
X12965000Y-6965000D01*
X12965000Y-6835000D02*
X12835000Y-6965000D01*
X12965000Y-6900000D02*
G75*
G02*
X12835000Y-6900000I-65000J0D01*
G01*
X12835000Y-6900000D02*
G75*
G02*
X12965000Y-6900000I65000J0D01*
G01*
X12835000Y-7335000D02*
X12965000Y-7465000D01*
X12965000Y-7335000D02*
X12835000Y-7465000D01*
X12965000Y-7400000D02*
G75*
G02*
X12835000Y-7400000I-65000J0D01*
G01*
X12835000Y-7400000D02*
G75*
G02*
X12965000Y-7400000I65000J0D01*
G01*
X12835000Y-7835000D02*
X12965000Y-7965000D01*
X12965000Y-7835000D02*
X12835000Y-7965000D01*
X12965000Y-7900000D02*
G75*
G02*
X12835000Y-7900000I-65000J0D01*
G01*
X12835000Y-7900000D02*
G75*
G02*
X12965000Y-7900000I65000J0D01*
G01*
X12835000Y-8335000D02*
X12965000Y-8465000D01*
X12965000Y-8335000D02*
X12835000Y-8465000D01*
X12965000Y-8400000D02*
G75*
G02*
X12835000Y-8400000I-65000J0D01*
G01*
X12835000Y-8400000D02*
G75*
G02*
X12965000Y-8400000I65000J0D01*
G01*
X12835000Y-8835000D02*
X12965000Y-8965000D01*
X12965000Y-8835000D02*
X12835000Y-8965000D01*
X12965000Y-8900000D02*
G75*
G02*
X12835000Y-8900000I-65000J0D01*
G01*
X12835000Y-8900000D02*
G75*
G02*
X12965000Y-8900000I65000J0D01*
G01*
X12835000Y-9735000D02*
X12965000Y-9865000D01*
X12965000Y-9735000D02*
X12835000Y-9865000D01*
X12965000Y-9800000D02*
G75*
G02*
X12835000Y-9800000I-65000J0D01*
G01*
X12835000Y-9800000D02*
G75*
G02*
X12965000Y-9800000I65000J0D01*
G01*
X12835000Y-10235000D02*
X12965000Y-10365000D01*
X12965000Y-10235000D02*
X12835000Y-10365000D01*
X12965000Y-10300000D02*
G75*
G02*
X12835000Y-10300000I-65000J0D01*
G01*
X12835000Y-10300000D02*
G75*
G02*
X12965000Y-10300000I65000J0D01*
G01*
X12835000Y-10735000D02*
X12965000Y-10865000D01*
X12965000Y-10735000D02*
X12835000Y-10865000D01*
X12965000Y-10800000D02*
G75*
G02*
X12835000Y-10800000I-65000J0D01*
G01*
X12835000Y-10800000D02*
G75*
G02*
X12965000Y-10800000I65000J0D01*
G01*
X12835000Y-11235000D02*
X12965000Y-11365000D01*
X12965000Y-11235000D02*
X12835000Y-11365000D01*
X12965000Y-11300000D02*
G75*
G02*
X12835000Y-11300000I-65000J0D01*
G01*
X12835000Y-11300000D02*
G75*
G02*
X12965000Y-11300000I65000J0D01*
G01*
X12835000Y-11735000D02*
X12965000Y-11865000D01*
X12965000Y-11735000D02*
X12835000Y-11865000D01*
X12965000Y-11800000D02*
G75*
G02*
X12835000Y-11800000I-65000J0D01*
G01*
X12835000Y-11800000D02*
G75*
G02*
X12965000Y-11800000I65000J0D01*
G01*
X12835000Y-12235000D02*
X12965000Y-12365000D01*
X12965000Y-12235000D02*
X12835000Y-12365000D01*
X12965000Y-12300000D02*
G75*
G02*
X12835000Y-12300000I-65000J0D01*
G01*
X12835000Y-12300000D02*
G75*
G02*
X12965000Y-12300000I65000J0D01*
G01*
X12835000Y-12735000D02*
X12965000Y-12865000D01*
X12965000Y-12735000D02*
X12835000Y-12865000D01*
X12965000Y-12800000D02*
G75*
G02*
X12835000Y-12800000I-65000J0D01*
G01*
X12835000Y-12800000D02*
G75*
G02*
X12965000Y-12800000I65000J0D01*
G01*
X12835000Y-13235000D02*
X12965000Y-13365000D01*
X12965000Y-13235000D02*
X12835000Y-13365000D01*
X12965000Y-13300000D02*
G75*
G02*
X12835000Y-13300000I-65000J0D01*
G01*
X12835000Y-13300000D02*
G75*
G02*
X12965000Y-13300000I65000J0D01*
G01*
D11*
X3908277Y-14013984D02*
X3908277Y-13813984D01*
X3908277Y-13813984D02*
X3955896Y-13813984D01*
X3955896Y-13813984D02*
X3984467Y-13823508D01*
X3984467Y-13823508D02*
X4003515Y-13842555D01*
X4003515Y-13842555D02*
X4013039Y-13861603D01*
X4013039Y-13861603D02*
X4022562Y-13899698D01*
X4022562Y-13899698D02*
X4022562Y-13928269D01*
X4022562Y-13928269D02*
X4013039Y-13966365D01*
X4013039Y-13966365D02*
X4003515Y-13985412D01*
X4003515Y-13985412D02*
X3984467Y-14004460D01*
X3984467Y-14004460D02*
X3955896Y-14013984D01*
X3955896Y-14013984D02*
X3908277Y-14013984D01*
X4108277Y-14013984D02*
X4108277Y-13880650D01*
X4108277Y-13918746D02*
X4117801Y-13899698D01*
X4117801Y-13899698D02*
X4127324Y-13890174D01*
X4127324Y-13890174D02*
X4146372Y-13880650D01*
X4146372Y-13880650D02*
X4165420Y-13880650D01*
X4232086Y-14013984D02*
X4232086Y-13880650D01*
X4232086Y-13813984D02*
X4222563Y-13823508D01*
X4222563Y-13823508D02*
X4232086Y-13833031D01*
X4232086Y-13833031D02*
X4241610Y-13823508D01*
X4241610Y-13823508D02*
X4232086Y-13813984D01*
X4232086Y-13813984D02*
X4232086Y-13833031D01*
X4355896Y-14013984D02*
X4336848Y-14004460D01*
X4336848Y-14004460D02*
X4327324Y-13985412D01*
X4327324Y-13985412D02*
X4327324Y-13813984D01*
X4460658Y-14013984D02*
X4441610Y-14004460D01*
X4441610Y-14004460D02*
X4432086Y-13985412D01*
X4432086Y-13985412D02*
X4432086Y-13813984D01*
X4689229Y-14013984D02*
X4689229Y-13813984D01*
X4689229Y-13813984D02*
X4755896Y-13956841D01*
X4755896Y-13956841D02*
X4822563Y-13813984D01*
X4822563Y-13813984D02*
X4822563Y-14013984D01*
X5003515Y-14013984D02*
X5003515Y-13909222D01*
X5003515Y-13909222D02*
X4993991Y-13890174D01*
X4993991Y-13890174D02*
X4974944Y-13880650D01*
X4974944Y-13880650D02*
X4936848Y-13880650D01*
X4936848Y-13880650D02*
X4917801Y-13890174D01*
X5003515Y-14004460D02*
X4984467Y-14013984D01*
X4984467Y-14013984D02*
X4936848Y-14013984D01*
X4936848Y-14013984D02*
X4917801Y-14004460D01*
X4917801Y-14004460D02*
X4908277Y-13985412D01*
X4908277Y-13985412D02*
X4908277Y-13966365D01*
X4908277Y-13966365D02*
X4917801Y-13947317D01*
X4917801Y-13947317D02*
X4936848Y-13937793D01*
X4936848Y-13937793D02*
X4984467Y-13937793D01*
X4984467Y-13937793D02*
X5003515Y-13928269D01*
X5098753Y-13880650D02*
X5098753Y-14080650D01*
X5098753Y-13890174D02*
X5117801Y-13880650D01*
X5117801Y-13880650D02*
X5155896Y-13880650D01*
X5155896Y-13880650D02*
X5174944Y-13890174D01*
X5174944Y-13890174D02*
X5184467Y-13899698D01*
X5184467Y-13899698D02*
X5193991Y-13918746D01*
X5193991Y-13918746D02*
X5193991Y-13975888D01*
X5193991Y-13975888D02*
X5184467Y-13994936D01*
X5184467Y-13994936D02*
X5174944Y-14004460D01*
X5174944Y-14004460D02*
X5155896Y-14013984D01*
X5155896Y-14013984D02*
X5117801Y-14013984D01*
X5117801Y-14013984D02*
X5098753Y-14004460D01*
X5279705Y-13994936D02*
X5289229Y-14004460D01*
X5289229Y-14004460D02*
X5279705Y-14013984D01*
X5279705Y-14013984D02*
X5270182Y-14004460D01*
X5270182Y-14004460D02*
X5279705Y-13994936D01*
X5279705Y-13994936D02*
X5279705Y-14013984D01*
X5279705Y-13890174D02*
X5289229Y-13899698D01*
X5289229Y-13899698D02*
X5279705Y-13909222D01*
X5279705Y-13909222D02*
X5270182Y-13899698D01*
X5270182Y-13899698D02*
X5279705Y-13890174D01*
X5279705Y-13890174D02*
X5279705Y-13909222D01*
D12*
X3617500Y-14327500D02*
X3647500Y-14357500D01*
X3647500Y-14327500D02*
X3617500Y-14357500D01*
D11*
X3946372Y-14233984D02*
X3965420Y-14233984D01*
X3965420Y-14233984D02*
X3984467Y-14243508D01*
X3984467Y-14243508D02*
X3993991Y-14253031D01*
X3993991Y-14253031D02*
X4003515Y-14272079D01*
X4003515Y-14272079D02*
X4013039Y-14310174D01*
X4013039Y-14310174D02*
X4013039Y-14357793D01*
X4013039Y-14357793D02*
X4003515Y-14395888D01*
X4003515Y-14395888D02*
X3993991Y-14414936D01*
X3993991Y-14414936D02*
X3984467Y-14424460D01*
X3984467Y-14424460D02*
X3965420Y-14433984D01*
X3965420Y-14433984D02*
X3946372Y-14433984D01*
X3946372Y-14433984D02*
X3927324Y-14424460D01*
X3927324Y-14424460D02*
X3917801Y-14414936D01*
X3917801Y-14414936D02*
X3908277Y-14395888D01*
X3908277Y-14395888D02*
X3898753Y-14357793D01*
X3898753Y-14357793D02*
X3898753Y-14310174D01*
X3898753Y-14310174D02*
X3908277Y-14272079D01*
X3908277Y-14272079D02*
X3917801Y-14253031D01*
X3917801Y-14253031D02*
X3927324Y-14243508D01*
X3927324Y-14243508D02*
X3946372Y-14233984D01*
X4098753Y-14414936D02*
X4108277Y-14424460D01*
X4108277Y-14424460D02*
X4098753Y-14433984D01*
X4098753Y-14433984D02*
X4089229Y-14424460D01*
X4089229Y-14424460D02*
X4098753Y-14414936D01*
X4098753Y-14414936D02*
X4098753Y-14433984D01*
X4174943Y-14233984D02*
X4298753Y-14233984D01*
X4298753Y-14233984D02*
X4232086Y-14310174D01*
X4232086Y-14310174D02*
X4260658Y-14310174D01*
X4260658Y-14310174D02*
X4279705Y-14319698D01*
X4279705Y-14319698D02*
X4289229Y-14329222D01*
X4289229Y-14329222D02*
X4298753Y-14348269D01*
X4298753Y-14348269D02*
X4298753Y-14395888D01*
X4298753Y-14395888D02*
X4289229Y-14414936D01*
X4289229Y-14414936D02*
X4279705Y-14424460D01*
X4279705Y-14424460D02*
X4260658Y-14433984D01*
X4260658Y-14433984D02*
X4203515Y-14433984D01*
X4203515Y-14433984D02*
X4184467Y-14424460D01*
X4184467Y-14424460D02*
X4174943Y-14414936D01*
X4422563Y-14233984D02*
X4441610Y-14233984D01*
X4441610Y-14233984D02*
X4460658Y-14243508D01*
X4460658Y-14243508D02*
X4470182Y-14253031D01*
X4470182Y-14253031D02*
X4479705Y-14272079D01*
X4479705Y-14272079D02*
X4489229Y-14310174D01*
X4489229Y-14310174D02*
X4489229Y-14357793D01*
X4489229Y-14357793D02*
X4479705Y-14395888D01*
X4479705Y-14395888D02*
X4470182Y-14414936D01*
X4470182Y-14414936D02*
X4460658Y-14424460D01*
X4460658Y-14424460D02*
X4441610Y-14433984D01*
X4441610Y-14433984D02*
X4422563Y-14433984D01*
X4422563Y-14433984D02*
X4403515Y-14424460D01*
X4403515Y-14424460D02*
X4393991Y-14414936D01*
X4393991Y-14414936D02*
X4384467Y-14395888D01*
X4384467Y-14395888D02*
X4374944Y-14357793D01*
X4374944Y-14357793D02*
X4374944Y-14310174D01*
X4374944Y-14310174D02*
X4384467Y-14272079D01*
X4384467Y-14272079D02*
X4393991Y-14253031D01*
X4393991Y-14253031D02*
X4403515Y-14243508D01*
X4403515Y-14243508D02*
X4422563Y-14233984D01*
X4613039Y-14233984D02*
X4632086Y-14233984D01*
X4632086Y-14233984D02*
X4651134Y-14243508D01*
X4651134Y-14243508D02*
X4660658Y-14253031D01*
X4660658Y-14253031D02*
X4670182Y-14272079D01*
X4670182Y-14272079D02*
X4679705Y-14310174D01*
X4679705Y-14310174D02*
X4679705Y-14357793D01*
X4679705Y-14357793D02*
X4670182Y-14395888D01*
X4670182Y-14395888D02*
X4660658Y-14414936D01*
X4660658Y-14414936D02*
X4651134Y-14424460D01*
X4651134Y-14424460D02*
X4632086Y-14433984D01*
X4632086Y-14433984D02*
X4613039Y-14433984D01*
X4613039Y-14433984D02*
X4593991Y-14424460D01*
X4593991Y-14424460D02*
X4584467Y-14414936D01*
X4584467Y-14414936D02*
X4574944Y-14395888D01*
X4574944Y-14395888D02*
X4565420Y-14357793D01*
X4565420Y-14357793D02*
X4565420Y-14310174D01*
X4565420Y-14310174D02*
X4574944Y-14272079D01*
X4574944Y-14272079D02*
X4584467Y-14253031D01*
X4584467Y-14253031D02*
X4593991Y-14243508D01*
X4593991Y-14243508D02*
X4613039Y-14233984D01*
X4765420Y-14433984D02*
X4765420Y-14300650D01*
X4765420Y-14319698D02*
X4774944Y-14310174D01*
X4774944Y-14310174D02*
X4793991Y-14300650D01*
X4793991Y-14300650D02*
X4822563Y-14300650D01*
X4822563Y-14300650D02*
X4841610Y-14310174D01*
X4841610Y-14310174D02*
X4851134Y-14329222D01*
X4851134Y-14329222D02*
X4851134Y-14433984D01*
X4851134Y-14329222D02*
X4860658Y-14310174D01*
X4860658Y-14310174D02*
X4879705Y-14300650D01*
X4879705Y-14300650D02*
X4908277Y-14300650D01*
X4908277Y-14300650D02*
X4927325Y-14310174D01*
X4927325Y-14310174D02*
X4936848Y-14329222D01*
X4936848Y-14329222D02*
X4936848Y-14433984D01*
X5032086Y-14433984D02*
X5032086Y-14300650D01*
X5032086Y-14319698D02*
X5041610Y-14310174D01*
X5041610Y-14310174D02*
X5060658Y-14300650D01*
X5060658Y-14300650D02*
X5089229Y-14300650D01*
X5089229Y-14300650D02*
X5108277Y-14310174D01*
X5108277Y-14310174D02*
X5117801Y-14329222D01*
X5117801Y-14329222D02*
X5117801Y-14433984D01*
X5117801Y-14329222D02*
X5127325Y-14310174D01*
X5127325Y-14310174D02*
X5146372Y-14300650D01*
X5146372Y-14300650D02*
X5174944Y-14300650D01*
X5174944Y-14300650D02*
X5193991Y-14310174D01*
X5193991Y-14310174D02*
X5203515Y-14329222D01*
X5203515Y-14329222D02*
X5203515Y-14433984D01*
X5593991Y-14224460D02*
X5422563Y-14481603D01*
X5851134Y-14233984D02*
X5870182Y-14233984D01*
X5870182Y-14233984D02*
X5889229Y-14243508D01*
X5889229Y-14243508D02*
X5898753Y-14253031D01*
X5898753Y-14253031D02*
X5908277Y-14272079D01*
X5908277Y-14272079D02*
X5917801Y-14310174D01*
X5917801Y-14310174D02*
X5917801Y-14357793D01*
X5917801Y-14357793D02*
X5908277Y-14395888D01*
X5908277Y-14395888D02*
X5898753Y-14414936D01*
X5898753Y-14414936D02*
X5889229Y-14424460D01*
X5889229Y-14424460D02*
X5870182Y-14433984D01*
X5870182Y-14433984D02*
X5851134Y-14433984D01*
X5851134Y-14433984D02*
X5832086Y-14424460D01*
X5832086Y-14424460D02*
X5822563Y-14414936D01*
X5822563Y-14414936D02*
X5813039Y-14395888D01*
X5813039Y-14395888D02*
X5803515Y-14357793D01*
X5803515Y-14357793D02*
X5803515Y-14310174D01*
X5803515Y-14310174D02*
X5813039Y-14272079D01*
X5813039Y-14272079D02*
X5822563Y-14253031D01*
X5822563Y-14253031D02*
X5832086Y-14243508D01*
X5832086Y-14243508D02*
X5851134Y-14233984D01*
X6003515Y-14414936D02*
X6013039Y-14424460D01*
X6013039Y-14424460D02*
X6003515Y-14433984D01*
X6003515Y-14433984D02*
X5993991Y-14424460D01*
X5993991Y-14424460D02*
X6003515Y-14414936D01*
X6003515Y-14414936D02*
X6003515Y-14433984D01*
X6136848Y-14233984D02*
X6155896Y-14233984D01*
X6155896Y-14233984D02*
X6174944Y-14243508D01*
X6174944Y-14243508D02*
X6184467Y-14253031D01*
X6184467Y-14253031D02*
X6193991Y-14272079D01*
X6193991Y-14272079D02*
X6203515Y-14310174D01*
X6203515Y-14310174D02*
X6203515Y-14357793D01*
X6203515Y-14357793D02*
X6193991Y-14395888D01*
X6193991Y-14395888D02*
X6184467Y-14414936D01*
X6184467Y-14414936D02*
X6174944Y-14424460D01*
X6174944Y-14424460D02*
X6155896Y-14433984D01*
X6155896Y-14433984D02*
X6136848Y-14433984D01*
X6136848Y-14433984D02*
X6117801Y-14424460D01*
X6117801Y-14424460D02*
X6108277Y-14414936D01*
X6108277Y-14414936D02*
X6098753Y-14395888D01*
X6098753Y-14395888D02*
X6089229Y-14357793D01*
X6089229Y-14357793D02*
X6089229Y-14310174D01*
X6089229Y-14310174D02*
X6098753Y-14272079D01*
X6098753Y-14272079D02*
X6108277Y-14253031D01*
X6108277Y-14253031D02*
X6117801Y-14243508D01*
X6117801Y-14243508D02*
X6136848Y-14233984D01*
X6393991Y-14433984D02*
X6279706Y-14433984D01*
X6336848Y-14433984D02*
X6336848Y-14233984D01*
X6336848Y-14233984D02*
X6317801Y-14262555D01*
X6317801Y-14262555D02*
X6298753Y-14281603D01*
X6298753Y-14281603D02*
X6279706Y-14291127D01*
X6584467Y-14433984D02*
X6470182Y-14433984D01*
X6527325Y-14433984D02*
X6527325Y-14233984D01*
X6527325Y-14233984D02*
X6508277Y-14262555D01*
X6508277Y-14262555D02*
X6489229Y-14281603D01*
X6489229Y-14281603D02*
X6470182Y-14291127D01*
X6698753Y-14319698D02*
X6679706Y-14310174D01*
X6679706Y-14310174D02*
X6670182Y-14300650D01*
X6670182Y-14300650D02*
X6660658Y-14281603D01*
X6660658Y-14281603D02*
X6660658Y-14272079D01*
X6660658Y-14272079D02*
X6670182Y-14253031D01*
X6670182Y-14253031D02*
X6679706Y-14243508D01*
X6679706Y-14243508D02*
X6698753Y-14233984D01*
X6698753Y-14233984D02*
X6736848Y-14233984D01*
X6736848Y-14233984D02*
X6755896Y-14243508D01*
X6755896Y-14243508D02*
X6765420Y-14253031D01*
X6765420Y-14253031D02*
X6774944Y-14272079D01*
X6774944Y-14272079D02*
X6774944Y-14281603D01*
X6774944Y-14281603D02*
X6765420Y-14300650D01*
X6765420Y-14300650D02*
X6755896Y-14310174D01*
X6755896Y-14310174D02*
X6736848Y-14319698D01*
X6736848Y-14319698D02*
X6698753Y-14319698D01*
X6698753Y-14319698D02*
X6679706Y-14329222D01*
X6679706Y-14329222D02*
X6670182Y-14338746D01*
X6670182Y-14338746D02*
X6660658Y-14357793D01*
X6660658Y-14357793D02*
X6660658Y-14395888D01*
X6660658Y-14395888D02*
X6670182Y-14414936D01*
X6670182Y-14414936D02*
X6679706Y-14424460D01*
X6679706Y-14424460D02*
X6698753Y-14433984D01*
X6698753Y-14433984D02*
X6736848Y-14433984D01*
X6736848Y-14433984D02*
X6755896Y-14424460D01*
X6755896Y-14424460D02*
X6765420Y-14414936D01*
X6765420Y-14414936D02*
X6774944Y-14395888D01*
X6774944Y-14395888D02*
X6774944Y-14357793D01*
X6774944Y-14357793D02*
X6765420Y-14338746D01*
X6765420Y-14338746D02*
X6755896Y-14329222D01*
X6755896Y-14329222D02*
X6736848Y-14319698D01*
X6851134Y-14233984D02*
X6851134Y-14272079D01*
X6927325Y-14233984D02*
X6927325Y-14272079D01*
X7222563Y-14510174D02*
X7213039Y-14500650D01*
X7213039Y-14500650D02*
X7193991Y-14472079D01*
X7193991Y-14472079D02*
X7184468Y-14453031D01*
X7184468Y-14453031D02*
X7174944Y-14424460D01*
X7174944Y-14424460D02*
X7165420Y-14376841D01*
X7165420Y-14376841D02*
X7165420Y-14338746D01*
X7165420Y-14338746D02*
X7174944Y-14291127D01*
X7174944Y-14291127D02*
X7184468Y-14262555D01*
X7184468Y-14262555D02*
X7193991Y-14243508D01*
X7193991Y-14243508D02*
X7213039Y-14214936D01*
X7213039Y-14214936D02*
X7222563Y-14205412D01*
X7384468Y-14233984D02*
X7346372Y-14233984D01*
X7346372Y-14233984D02*
X7327325Y-14243508D01*
X7327325Y-14243508D02*
X7317801Y-14253031D01*
X7317801Y-14253031D02*
X7298753Y-14281603D01*
X7298753Y-14281603D02*
X7289229Y-14319698D01*
X7289229Y-14319698D02*
X7289229Y-14395888D01*
X7289229Y-14395888D02*
X7298753Y-14414936D01*
X7298753Y-14414936D02*
X7308277Y-14424460D01*
X7308277Y-14424460D02*
X7327325Y-14433984D01*
X7327325Y-14433984D02*
X7365420Y-14433984D01*
X7365420Y-14433984D02*
X7384468Y-14424460D01*
X7384468Y-14424460D02*
X7393991Y-14414936D01*
X7393991Y-14414936D02*
X7403515Y-14395888D01*
X7403515Y-14395888D02*
X7403515Y-14348269D01*
X7403515Y-14348269D02*
X7393991Y-14329222D01*
X7393991Y-14329222D02*
X7384468Y-14319698D01*
X7384468Y-14319698D02*
X7365420Y-14310174D01*
X7365420Y-14310174D02*
X7327325Y-14310174D01*
X7327325Y-14310174D02*
X7308277Y-14319698D01*
X7308277Y-14319698D02*
X7298753Y-14329222D01*
X7298753Y-14329222D02*
X7289229Y-14348269D01*
X7641610Y-14433984D02*
X7641610Y-14233984D01*
X7727325Y-14433984D02*
X7727325Y-14329222D01*
X7727325Y-14329222D02*
X7717801Y-14310174D01*
X7717801Y-14310174D02*
X7698753Y-14300650D01*
X7698753Y-14300650D02*
X7670182Y-14300650D01*
X7670182Y-14300650D02*
X7651134Y-14310174D01*
X7651134Y-14310174D02*
X7641610Y-14319698D01*
X7851134Y-14433984D02*
X7832087Y-14424460D01*
X7832087Y-14424460D02*
X7822563Y-14414936D01*
X7822563Y-14414936D02*
X7813039Y-14395888D01*
X7813039Y-14395888D02*
X7813039Y-14338746D01*
X7813039Y-14338746D02*
X7822563Y-14319698D01*
X7822563Y-14319698D02*
X7832087Y-14310174D01*
X7832087Y-14310174D02*
X7851134Y-14300650D01*
X7851134Y-14300650D02*
X7879706Y-14300650D01*
X7879706Y-14300650D02*
X7898753Y-14310174D01*
X7898753Y-14310174D02*
X7908277Y-14319698D01*
X7908277Y-14319698D02*
X7917801Y-14338746D01*
X7917801Y-14338746D02*
X7917801Y-14395888D01*
X7917801Y-14395888D02*
X7908277Y-14414936D01*
X7908277Y-14414936D02*
X7898753Y-14424460D01*
X7898753Y-14424460D02*
X7879706Y-14433984D01*
X7879706Y-14433984D02*
X7851134Y-14433984D01*
X8032087Y-14433984D02*
X8013039Y-14424460D01*
X8013039Y-14424460D02*
X8003515Y-14405412D01*
X8003515Y-14405412D02*
X8003515Y-14233984D01*
X8184468Y-14424460D02*
X8165420Y-14433984D01*
X8165420Y-14433984D02*
X8127325Y-14433984D01*
X8127325Y-14433984D02*
X8108277Y-14424460D01*
X8108277Y-14424460D02*
X8098753Y-14405412D01*
X8098753Y-14405412D02*
X8098753Y-14329222D01*
X8098753Y-14329222D02*
X8108277Y-14310174D01*
X8108277Y-14310174D02*
X8127325Y-14300650D01*
X8127325Y-14300650D02*
X8165420Y-14300650D01*
X8165420Y-14300650D02*
X8184468Y-14310174D01*
X8184468Y-14310174D02*
X8193991Y-14329222D01*
X8193991Y-14329222D02*
X8193991Y-14348269D01*
X8193991Y-14348269D02*
X8098753Y-14367317D01*
X8270182Y-14424460D02*
X8289230Y-14433984D01*
X8289230Y-14433984D02*
X8327325Y-14433984D01*
X8327325Y-14433984D02*
X8346372Y-14424460D01*
X8346372Y-14424460D02*
X8355896Y-14405412D01*
X8355896Y-14405412D02*
X8355896Y-14395888D01*
X8355896Y-14395888D02*
X8346372Y-14376841D01*
X8346372Y-14376841D02*
X8327325Y-14367317D01*
X8327325Y-14367317D02*
X8298753Y-14367317D01*
X8298753Y-14367317D02*
X8279706Y-14357793D01*
X8279706Y-14357793D02*
X8270182Y-14338746D01*
X8270182Y-14338746D02*
X8270182Y-14329222D01*
X8270182Y-14329222D02*
X8279706Y-14310174D01*
X8279706Y-14310174D02*
X8298753Y-14300650D01*
X8298753Y-14300650D02*
X8327325Y-14300650D01*
X8327325Y-14300650D02*
X8346372Y-14310174D01*
X8422563Y-14510174D02*
X8432087Y-14500650D01*
X8432087Y-14500650D02*
X8451134Y-14472079D01*
X8451134Y-14472079D02*
X8460658Y-14453031D01*
X8460658Y-14453031D02*
X8470182Y-14424460D01*
X8470182Y-14424460D02*
X8479706Y-14376841D01*
X8479706Y-14376841D02*
X8479706Y-14338746D01*
X8479706Y-14338746D02*
X8470182Y-14291127D01*
X8470182Y-14291127D02*
X8460658Y-14262555D01*
X8460658Y-14262555D02*
X8451134Y-14243508D01*
X8451134Y-14243508D02*
X8432087Y-14214936D01*
X8432087Y-14214936D02*
X8422563Y-14205412D01*
D12*
X3647500Y-14606500D02*
G75*
G02*
X3567500Y-14606500I-40000J0D01*
G01*
X3567500Y-14606500D02*
G75*
G02*
X3647500Y-14606500I40000J0D01*
G01*
D11*
X3946372Y-14497984D02*
X3965420Y-14497984D01*
X3965420Y-14497984D02*
X3984467Y-14507508D01*
X3984467Y-14507508D02*
X3993991Y-14517031D01*
X3993991Y-14517031D02*
X4003515Y-14536079D01*
X4003515Y-14536079D02*
X4013039Y-14574174D01*
X4013039Y-14574174D02*
X4013039Y-14621793D01*
X4013039Y-14621793D02*
X4003515Y-14659888D01*
X4003515Y-14659888D02*
X3993991Y-14678936D01*
X3993991Y-14678936D02*
X3984467Y-14688460D01*
X3984467Y-14688460D02*
X3965420Y-14697984D01*
X3965420Y-14697984D02*
X3946372Y-14697984D01*
X3946372Y-14697984D02*
X3927324Y-14688460D01*
X3927324Y-14688460D02*
X3917801Y-14678936D01*
X3917801Y-14678936D02*
X3908277Y-14659888D01*
X3908277Y-14659888D02*
X3898753Y-14621793D01*
X3898753Y-14621793D02*
X3898753Y-14574174D01*
X3898753Y-14574174D02*
X3908277Y-14536079D01*
X3908277Y-14536079D02*
X3917801Y-14517031D01*
X3917801Y-14517031D02*
X3927324Y-14507508D01*
X3927324Y-14507508D02*
X3946372Y-14497984D01*
X4098753Y-14678936D02*
X4108277Y-14688460D01*
X4108277Y-14688460D02*
X4098753Y-14697984D01*
X4098753Y-14697984D02*
X4089229Y-14688460D01*
X4089229Y-14688460D02*
X4098753Y-14678936D01*
X4098753Y-14678936D02*
X4098753Y-14697984D01*
X4222563Y-14583698D02*
X4203515Y-14574174D01*
X4203515Y-14574174D02*
X4193991Y-14564650D01*
X4193991Y-14564650D02*
X4184467Y-14545603D01*
X4184467Y-14545603D02*
X4184467Y-14536079D01*
X4184467Y-14536079D02*
X4193991Y-14517031D01*
X4193991Y-14517031D02*
X4203515Y-14507508D01*
X4203515Y-14507508D02*
X4222563Y-14497984D01*
X4222563Y-14497984D02*
X4260658Y-14497984D01*
X4260658Y-14497984D02*
X4279705Y-14507508D01*
X4279705Y-14507508D02*
X4289229Y-14517031D01*
X4289229Y-14517031D02*
X4298753Y-14536079D01*
X4298753Y-14536079D02*
X4298753Y-14545603D01*
X4298753Y-14545603D02*
X4289229Y-14564650D01*
X4289229Y-14564650D02*
X4279705Y-14574174D01*
X4279705Y-14574174D02*
X4260658Y-14583698D01*
X4260658Y-14583698D02*
X4222563Y-14583698D01*
X4222563Y-14583698D02*
X4203515Y-14593222D01*
X4203515Y-14593222D02*
X4193991Y-14602746D01*
X4193991Y-14602746D02*
X4184467Y-14621793D01*
X4184467Y-14621793D02*
X4184467Y-14659888D01*
X4184467Y-14659888D02*
X4193991Y-14678936D01*
X4193991Y-14678936D02*
X4203515Y-14688460D01*
X4203515Y-14688460D02*
X4222563Y-14697984D01*
X4222563Y-14697984D02*
X4260658Y-14697984D01*
X4260658Y-14697984D02*
X4279705Y-14688460D01*
X4279705Y-14688460D02*
X4289229Y-14678936D01*
X4289229Y-14678936D02*
X4298753Y-14659888D01*
X4298753Y-14659888D02*
X4298753Y-14621793D01*
X4298753Y-14621793D02*
X4289229Y-14602746D01*
X4289229Y-14602746D02*
X4279705Y-14593222D01*
X4279705Y-14593222D02*
X4260658Y-14583698D01*
X4422563Y-14497984D02*
X4441610Y-14497984D01*
X4441610Y-14497984D02*
X4460658Y-14507508D01*
X4460658Y-14507508D02*
X4470182Y-14517031D01*
X4470182Y-14517031D02*
X4479705Y-14536079D01*
X4479705Y-14536079D02*
X4489229Y-14574174D01*
X4489229Y-14574174D02*
X4489229Y-14621793D01*
X4489229Y-14621793D02*
X4479705Y-14659888D01*
X4479705Y-14659888D02*
X4470182Y-14678936D01*
X4470182Y-14678936D02*
X4460658Y-14688460D01*
X4460658Y-14688460D02*
X4441610Y-14697984D01*
X4441610Y-14697984D02*
X4422563Y-14697984D01*
X4422563Y-14697984D02*
X4403515Y-14688460D01*
X4403515Y-14688460D02*
X4393991Y-14678936D01*
X4393991Y-14678936D02*
X4384467Y-14659888D01*
X4384467Y-14659888D02*
X4374944Y-14621793D01*
X4374944Y-14621793D02*
X4374944Y-14574174D01*
X4374944Y-14574174D02*
X4384467Y-14536079D01*
X4384467Y-14536079D02*
X4393991Y-14517031D01*
X4393991Y-14517031D02*
X4403515Y-14507508D01*
X4403515Y-14507508D02*
X4422563Y-14497984D01*
X4613039Y-14497984D02*
X4632086Y-14497984D01*
X4632086Y-14497984D02*
X4651134Y-14507508D01*
X4651134Y-14507508D02*
X4660658Y-14517031D01*
X4660658Y-14517031D02*
X4670182Y-14536079D01*
X4670182Y-14536079D02*
X4679705Y-14574174D01*
X4679705Y-14574174D02*
X4679705Y-14621793D01*
X4679705Y-14621793D02*
X4670182Y-14659888D01*
X4670182Y-14659888D02*
X4660658Y-14678936D01*
X4660658Y-14678936D02*
X4651134Y-14688460D01*
X4651134Y-14688460D02*
X4632086Y-14697984D01*
X4632086Y-14697984D02*
X4613039Y-14697984D01*
X4613039Y-14697984D02*
X4593991Y-14688460D01*
X4593991Y-14688460D02*
X4584467Y-14678936D01*
X4584467Y-14678936D02*
X4574944Y-14659888D01*
X4574944Y-14659888D02*
X4565420Y-14621793D01*
X4565420Y-14621793D02*
X4565420Y-14574174D01*
X4565420Y-14574174D02*
X4574944Y-14536079D01*
X4574944Y-14536079D02*
X4584467Y-14517031D01*
X4584467Y-14517031D02*
X4593991Y-14507508D01*
X4593991Y-14507508D02*
X4613039Y-14497984D01*
X4765420Y-14697984D02*
X4765420Y-14564650D01*
X4765420Y-14583698D02*
X4774944Y-14574174D01*
X4774944Y-14574174D02*
X4793991Y-14564650D01*
X4793991Y-14564650D02*
X4822563Y-14564650D01*
X4822563Y-14564650D02*
X4841610Y-14574174D01*
X4841610Y-14574174D02*
X4851134Y-14593222D01*
X4851134Y-14593222D02*
X4851134Y-14697984D01*
X4851134Y-14593222D02*
X4860658Y-14574174D01*
X4860658Y-14574174D02*
X4879705Y-14564650D01*
X4879705Y-14564650D02*
X4908277Y-14564650D01*
X4908277Y-14564650D02*
X4927325Y-14574174D01*
X4927325Y-14574174D02*
X4936848Y-14593222D01*
X4936848Y-14593222D02*
X4936848Y-14697984D01*
X5032086Y-14697984D02*
X5032086Y-14564650D01*
X5032086Y-14583698D02*
X5041610Y-14574174D01*
X5041610Y-14574174D02*
X5060658Y-14564650D01*
X5060658Y-14564650D02*
X5089229Y-14564650D01*
X5089229Y-14564650D02*
X5108277Y-14574174D01*
X5108277Y-14574174D02*
X5117801Y-14593222D01*
X5117801Y-14593222D02*
X5117801Y-14697984D01*
X5117801Y-14593222D02*
X5127325Y-14574174D01*
X5127325Y-14574174D02*
X5146372Y-14564650D01*
X5146372Y-14564650D02*
X5174944Y-14564650D01*
X5174944Y-14564650D02*
X5193991Y-14574174D01*
X5193991Y-14574174D02*
X5203515Y-14593222D01*
X5203515Y-14593222D02*
X5203515Y-14697984D01*
X5593991Y-14488460D02*
X5422563Y-14745603D01*
X5851134Y-14497984D02*
X5870182Y-14497984D01*
X5870182Y-14497984D02*
X5889229Y-14507508D01*
X5889229Y-14507508D02*
X5898753Y-14517031D01*
X5898753Y-14517031D02*
X5908277Y-14536079D01*
X5908277Y-14536079D02*
X5917801Y-14574174D01*
X5917801Y-14574174D02*
X5917801Y-14621793D01*
X5917801Y-14621793D02*
X5908277Y-14659888D01*
X5908277Y-14659888D02*
X5898753Y-14678936D01*
X5898753Y-14678936D02*
X5889229Y-14688460D01*
X5889229Y-14688460D02*
X5870182Y-14697984D01*
X5870182Y-14697984D02*
X5851134Y-14697984D01*
X5851134Y-14697984D02*
X5832086Y-14688460D01*
X5832086Y-14688460D02*
X5822563Y-14678936D01*
X5822563Y-14678936D02*
X5813039Y-14659888D01*
X5813039Y-14659888D02*
X5803515Y-14621793D01*
X5803515Y-14621793D02*
X5803515Y-14574174D01*
X5803515Y-14574174D02*
X5813039Y-14536079D01*
X5813039Y-14536079D02*
X5822563Y-14517031D01*
X5822563Y-14517031D02*
X5832086Y-14507508D01*
X5832086Y-14507508D02*
X5851134Y-14497984D01*
X6003515Y-14678936D02*
X6013039Y-14688460D01*
X6013039Y-14688460D02*
X6003515Y-14697984D01*
X6003515Y-14697984D02*
X5993991Y-14688460D01*
X5993991Y-14688460D02*
X6003515Y-14678936D01*
X6003515Y-14678936D02*
X6003515Y-14697984D01*
X6136848Y-14497984D02*
X6155896Y-14497984D01*
X6155896Y-14497984D02*
X6174944Y-14507508D01*
X6174944Y-14507508D02*
X6184467Y-14517031D01*
X6184467Y-14517031D02*
X6193991Y-14536079D01*
X6193991Y-14536079D02*
X6203515Y-14574174D01*
X6203515Y-14574174D02*
X6203515Y-14621793D01*
X6203515Y-14621793D02*
X6193991Y-14659888D01*
X6193991Y-14659888D02*
X6184467Y-14678936D01*
X6184467Y-14678936D02*
X6174944Y-14688460D01*
X6174944Y-14688460D02*
X6155896Y-14697984D01*
X6155896Y-14697984D02*
X6136848Y-14697984D01*
X6136848Y-14697984D02*
X6117801Y-14688460D01*
X6117801Y-14688460D02*
X6108277Y-14678936D01*
X6108277Y-14678936D02*
X6098753Y-14659888D01*
X6098753Y-14659888D02*
X6089229Y-14621793D01*
X6089229Y-14621793D02*
X6089229Y-14574174D01*
X6089229Y-14574174D02*
X6098753Y-14536079D01*
X6098753Y-14536079D02*
X6108277Y-14517031D01*
X6108277Y-14517031D02*
X6117801Y-14507508D01*
X6117801Y-14507508D02*
X6136848Y-14497984D01*
X6270182Y-14497984D02*
X6393991Y-14497984D01*
X6393991Y-14497984D02*
X6327325Y-14574174D01*
X6327325Y-14574174D02*
X6355896Y-14574174D01*
X6355896Y-14574174D02*
X6374944Y-14583698D01*
X6374944Y-14583698D02*
X6384467Y-14593222D01*
X6384467Y-14593222D02*
X6393991Y-14612269D01*
X6393991Y-14612269D02*
X6393991Y-14659888D01*
X6393991Y-14659888D02*
X6384467Y-14678936D01*
X6384467Y-14678936D02*
X6374944Y-14688460D01*
X6374944Y-14688460D02*
X6355896Y-14697984D01*
X6355896Y-14697984D02*
X6298753Y-14697984D01*
X6298753Y-14697984D02*
X6279706Y-14688460D01*
X6279706Y-14688460D02*
X6270182Y-14678936D01*
X6584467Y-14697984D02*
X6470182Y-14697984D01*
X6527325Y-14697984D02*
X6527325Y-14497984D01*
X6527325Y-14497984D02*
X6508277Y-14526555D01*
X6508277Y-14526555D02*
X6489229Y-14545603D01*
X6489229Y-14545603D02*
X6470182Y-14555127D01*
X6765420Y-14497984D02*
X6670182Y-14497984D01*
X6670182Y-14497984D02*
X6660658Y-14593222D01*
X6660658Y-14593222D02*
X6670182Y-14583698D01*
X6670182Y-14583698D02*
X6689229Y-14574174D01*
X6689229Y-14574174D02*
X6736848Y-14574174D01*
X6736848Y-14574174D02*
X6755896Y-14583698D01*
X6755896Y-14583698D02*
X6765420Y-14593222D01*
X6765420Y-14593222D02*
X6774944Y-14612269D01*
X6774944Y-14612269D02*
X6774944Y-14659888D01*
X6774944Y-14659888D02*
X6765420Y-14678936D01*
X6765420Y-14678936D02*
X6755896Y-14688460D01*
X6755896Y-14688460D02*
X6736848Y-14697984D01*
X6736848Y-14697984D02*
X6689229Y-14697984D01*
X6689229Y-14697984D02*
X6670182Y-14688460D01*
X6670182Y-14688460D02*
X6660658Y-14678936D01*
X6851134Y-14497984D02*
X6851134Y-14536079D01*
X6927325Y-14497984D02*
X6927325Y-14536079D01*
X7222563Y-14774174D02*
X7213039Y-14764650D01*
X7213039Y-14764650D02*
X7193991Y-14736079D01*
X7193991Y-14736079D02*
X7184468Y-14717031D01*
X7184468Y-14717031D02*
X7174944Y-14688460D01*
X7174944Y-14688460D02*
X7165420Y-14640841D01*
X7165420Y-14640841D02*
X7165420Y-14602746D01*
X7165420Y-14602746D02*
X7174944Y-14555127D01*
X7174944Y-14555127D02*
X7184468Y-14526555D01*
X7184468Y-14526555D02*
X7193991Y-14507508D01*
X7193991Y-14507508D02*
X7213039Y-14478936D01*
X7213039Y-14478936D02*
X7222563Y-14469412D01*
X7289229Y-14517031D02*
X7298753Y-14507508D01*
X7298753Y-14507508D02*
X7317801Y-14497984D01*
X7317801Y-14497984D02*
X7365420Y-14497984D01*
X7365420Y-14497984D02*
X7384468Y-14507508D01*
X7384468Y-14507508D02*
X7393991Y-14517031D01*
X7393991Y-14517031D02*
X7403515Y-14536079D01*
X7403515Y-14536079D02*
X7403515Y-14555127D01*
X7403515Y-14555127D02*
X7393991Y-14583698D01*
X7393991Y-14583698D02*
X7279706Y-14697984D01*
X7279706Y-14697984D02*
X7403515Y-14697984D01*
X7641610Y-14697984D02*
X7641610Y-14497984D01*
X7727325Y-14697984D02*
X7727325Y-14593222D01*
X7727325Y-14593222D02*
X7717801Y-14574174D01*
X7717801Y-14574174D02*
X7698753Y-14564650D01*
X7698753Y-14564650D02*
X7670182Y-14564650D01*
X7670182Y-14564650D02*
X7651134Y-14574174D01*
X7651134Y-14574174D02*
X7641610Y-14583698D01*
X7851134Y-14697984D02*
X7832087Y-14688460D01*
X7832087Y-14688460D02*
X7822563Y-14678936D01*
X7822563Y-14678936D02*
X7813039Y-14659888D01*
X7813039Y-14659888D02*
X7813039Y-14602746D01*
X7813039Y-14602746D02*
X7822563Y-14583698D01*
X7822563Y-14583698D02*
X7832087Y-14574174D01*
X7832087Y-14574174D02*
X7851134Y-14564650D01*
X7851134Y-14564650D02*
X7879706Y-14564650D01*
X7879706Y-14564650D02*
X7898753Y-14574174D01*
X7898753Y-14574174D02*
X7908277Y-14583698D01*
X7908277Y-14583698D02*
X7917801Y-14602746D01*
X7917801Y-14602746D02*
X7917801Y-14659888D01*
X7917801Y-14659888D02*
X7908277Y-14678936D01*
X7908277Y-14678936D02*
X7898753Y-14688460D01*
X7898753Y-14688460D02*
X7879706Y-14697984D01*
X7879706Y-14697984D02*
X7851134Y-14697984D01*
X8032087Y-14697984D02*
X8013039Y-14688460D01*
X8013039Y-14688460D02*
X8003515Y-14669412D01*
X8003515Y-14669412D02*
X8003515Y-14497984D01*
X8184468Y-14688460D02*
X8165420Y-14697984D01*
X8165420Y-14697984D02*
X8127325Y-14697984D01*
X8127325Y-14697984D02*
X8108277Y-14688460D01*
X8108277Y-14688460D02*
X8098753Y-14669412D01*
X8098753Y-14669412D02*
X8098753Y-14593222D01*
X8098753Y-14593222D02*
X8108277Y-14574174D01*
X8108277Y-14574174D02*
X8127325Y-14564650D01*
X8127325Y-14564650D02*
X8165420Y-14564650D01*
X8165420Y-14564650D02*
X8184468Y-14574174D01*
X8184468Y-14574174D02*
X8193991Y-14593222D01*
X8193991Y-14593222D02*
X8193991Y-14612269D01*
X8193991Y-14612269D02*
X8098753Y-14631317D01*
X8270182Y-14688460D02*
X8289230Y-14697984D01*
X8289230Y-14697984D02*
X8327325Y-14697984D01*
X8327325Y-14697984D02*
X8346372Y-14688460D01*
X8346372Y-14688460D02*
X8355896Y-14669412D01*
X8355896Y-14669412D02*
X8355896Y-14659888D01*
X8355896Y-14659888D02*
X8346372Y-14640841D01*
X8346372Y-14640841D02*
X8327325Y-14631317D01*
X8327325Y-14631317D02*
X8298753Y-14631317D01*
X8298753Y-14631317D02*
X8279706Y-14621793D01*
X8279706Y-14621793D02*
X8270182Y-14602746D01*
X8270182Y-14602746D02*
X8270182Y-14593222D01*
X8270182Y-14593222D02*
X8279706Y-14574174D01*
X8279706Y-14574174D02*
X8298753Y-14564650D01*
X8298753Y-14564650D02*
X8327325Y-14564650D01*
X8327325Y-14564650D02*
X8346372Y-14574174D01*
X8422563Y-14774174D02*
X8432087Y-14764650D01*
X8432087Y-14764650D02*
X8451134Y-14736079D01*
X8451134Y-14736079D02*
X8460658Y-14717031D01*
X8460658Y-14717031D02*
X8470182Y-14688460D01*
X8470182Y-14688460D02*
X8479706Y-14640841D01*
X8479706Y-14640841D02*
X8479706Y-14602746D01*
X8479706Y-14602746D02*
X8470182Y-14555127D01*
X8470182Y-14555127D02*
X8460658Y-14526555D01*
X8460658Y-14526555D02*
X8451134Y-14507508D01*
X8451134Y-14507508D02*
X8432087Y-14478936D01*
X8432087Y-14478936D02*
X8422563Y-14469412D01*
D12*
X3602500Y-14825500D02*
X3602500Y-14915500D01*
X3557500Y-14870500D02*
X3647500Y-14870500D01*
D11*
X3946372Y-14761984D02*
X3965420Y-14761984D01*
X3965420Y-14761984D02*
X3984467Y-14771508D01*
X3984467Y-14771508D02*
X3993991Y-14781031D01*
X3993991Y-14781031D02*
X4003515Y-14800079D01*
X4003515Y-14800079D02*
X4013039Y-14838174D01*
X4013039Y-14838174D02*
X4013039Y-14885793D01*
X4013039Y-14885793D02*
X4003515Y-14923888D01*
X4003515Y-14923888D02*
X3993991Y-14942936D01*
X3993991Y-14942936D02*
X3984467Y-14952460D01*
X3984467Y-14952460D02*
X3965420Y-14961984D01*
X3965420Y-14961984D02*
X3946372Y-14961984D01*
X3946372Y-14961984D02*
X3927324Y-14952460D01*
X3927324Y-14952460D02*
X3917801Y-14942936D01*
X3917801Y-14942936D02*
X3908277Y-14923888D01*
X3908277Y-14923888D02*
X3898753Y-14885793D01*
X3898753Y-14885793D02*
X3898753Y-14838174D01*
X3898753Y-14838174D02*
X3908277Y-14800079D01*
X3908277Y-14800079D02*
X3917801Y-14781031D01*
X3917801Y-14781031D02*
X3927324Y-14771508D01*
X3927324Y-14771508D02*
X3946372Y-14761984D01*
X4098753Y-14942936D02*
X4108277Y-14952460D01*
X4108277Y-14952460D02*
X4098753Y-14961984D01*
X4098753Y-14961984D02*
X4089229Y-14952460D01*
X4089229Y-14952460D02*
X4098753Y-14942936D01*
X4098753Y-14942936D02*
X4098753Y-14961984D01*
X4203515Y-14961984D02*
X4241610Y-14961984D01*
X4241610Y-14961984D02*
X4260658Y-14952460D01*
X4260658Y-14952460D02*
X4270182Y-14942936D01*
X4270182Y-14942936D02*
X4289229Y-14914365D01*
X4289229Y-14914365D02*
X4298753Y-14876269D01*
X4298753Y-14876269D02*
X4298753Y-14800079D01*
X4298753Y-14800079D02*
X4289229Y-14781031D01*
X4289229Y-14781031D02*
X4279705Y-14771508D01*
X4279705Y-14771508D02*
X4260658Y-14761984D01*
X4260658Y-14761984D02*
X4222563Y-14761984D01*
X4222563Y-14761984D02*
X4203515Y-14771508D01*
X4203515Y-14771508D02*
X4193991Y-14781031D01*
X4193991Y-14781031D02*
X4184467Y-14800079D01*
X4184467Y-14800079D02*
X4184467Y-14847698D01*
X4184467Y-14847698D02*
X4193991Y-14866746D01*
X4193991Y-14866746D02*
X4203515Y-14876269D01*
X4203515Y-14876269D02*
X4222563Y-14885793D01*
X4222563Y-14885793D02*
X4260658Y-14885793D01*
X4260658Y-14885793D02*
X4279705Y-14876269D01*
X4279705Y-14876269D02*
X4289229Y-14866746D01*
X4289229Y-14866746D02*
X4298753Y-14847698D01*
X4422563Y-14761984D02*
X4441610Y-14761984D01*
X4441610Y-14761984D02*
X4460658Y-14771508D01*
X4460658Y-14771508D02*
X4470182Y-14781031D01*
X4470182Y-14781031D02*
X4479705Y-14800079D01*
X4479705Y-14800079D02*
X4489229Y-14838174D01*
X4489229Y-14838174D02*
X4489229Y-14885793D01*
X4489229Y-14885793D02*
X4479705Y-14923888D01*
X4479705Y-14923888D02*
X4470182Y-14942936D01*
X4470182Y-14942936D02*
X4460658Y-14952460D01*
X4460658Y-14952460D02*
X4441610Y-14961984D01*
X4441610Y-14961984D02*
X4422563Y-14961984D01*
X4422563Y-14961984D02*
X4403515Y-14952460D01*
X4403515Y-14952460D02*
X4393991Y-14942936D01*
X4393991Y-14942936D02*
X4384467Y-14923888D01*
X4384467Y-14923888D02*
X4374944Y-14885793D01*
X4374944Y-14885793D02*
X4374944Y-14838174D01*
X4374944Y-14838174D02*
X4384467Y-14800079D01*
X4384467Y-14800079D02*
X4393991Y-14781031D01*
X4393991Y-14781031D02*
X4403515Y-14771508D01*
X4403515Y-14771508D02*
X4422563Y-14761984D01*
X4613039Y-14761984D02*
X4632086Y-14761984D01*
X4632086Y-14761984D02*
X4651134Y-14771508D01*
X4651134Y-14771508D02*
X4660658Y-14781031D01*
X4660658Y-14781031D02*
X4670182Y-14800079D01*
X4670182Y-14800079D02*
X4679705Y-14838174D01*
X4679705Y-14838174D02*
X4679705Y-14885793D01*
X4679705Y-14885793D02*
X4670182Y-14923888D01*
X4670182Y-14923888D02*
X4660658Y-14942936D01*
X4660658Y-14942936D02*
X4651134Y-14952460D01*
X4651134Y-14952460D02*
X4632086Y-14961984D01*
X4632086Y-14961984D02*
X4613039Y-14961984D01*
X4613039Y-14961984D02*
X4593991Y-14952460D01*
X4593991Y-14952460D02*
X4584467Y-14942936D01*
X4584467Y-14942936D02*
X4574944Y-14923888D01*
X4574944Y-14923888D02*
X4565420Y-14885793D01*
X4565420Y-14885793D02*
X4565420Y-14838174D01*
X4565420Y-14838174D02*
X4574944Y-14800079D01*
X4574944Y-14800079D02*
X4584467Y-14781031D01*
X4584467Y-14781031D02*
X4593991Y-14771508D01*
X4593991Y-14771508D02*
X4613039Y-14761984D01*
X4765420Y-14961984D02*
X4765420Y-14828650D01*
X4765420Y-14847698D02*
X4774944Y-14838174D01*
X4774944Y-14838174D02*
X4793991Y-14828650D01*
X4793991Y-14828650D02*
X4822563Y-14828650D01*
X4822563Y-14828650D02*
X4841610Y-14838174D01*
X4841610Y-14838174D02*
X4851134Y-14857222D01*
X4851134Y-14857222D02*
X4851134Y-14961984D01*
X4851134Y-14857222D02*
X4860658Y-14838174D01*
X4860658Y-14838174D02*
X4879705Y-14828650D01*
X4879705Y-14828650D02*
X4908277Y-14828650D01*
X4908277Y-14828650D02*
X4927325Y-14838174D01*
X4927325Y-14838174D02*
X4936848Y-14857222D01*
X4936848Y-14857222D02*
X4936848Y-14961984D01*
X5032086Y-14961984D02*
X5032086Y-14828650D01*
X5032086Y-14847698D02*
X5041610Y-14838174D01*
X5041610Y-14838174D02*
X5060658Y-14828650D01*
X5060658Y-14828650D02*
X5089229Y-14828650D01*
X5089229Y-14828650D02*
X5108277Y-14838174D01*
X5108277Y-14838174D02*
X5117801Y-14857222D01*
X5117801Y-14857222D02*
X5117801Y-14961984D01*
X5117801Y-14857222D02*
X5127325Y-14838174D01*
X5127325Y-14838174D02*
X5146372Y-14828650D01*
X5146372Y-14828650D02*
X5174944Y-14828650D01*
X5174944Y-14828650D02*
X5193991Y-14838174D01*
X5193991Y-14838174D02*
X5203515Y-14857222D01*
X5203515Y-14857222D02*
X5203515Y-14961984D01*
X5593991Y-14752460D02*
X5422563Y-15009603D01*
X5851134Y-14761984D02*
X5870182Y-14761984D01*
X5870182Y-14761984D02*
X5889229Y-14771508D01*
X5889229Y-14771508D02*
X5898753Y-14781031D01*
X5898753Y-14781031D02*
X5908277Y-14800079D01*
X5908277Y-14800079D02*
X5917801Y-14838174D01*
X5917801Y-14838174D02*
X5917801Y-14885793D01*
X5917801Y-14885793D02*
X5908277Y-14923888D01*
X5908277Y-14923888D02*
X5898753Y-14942936D01*
X5898753Y-14942936D02*
X5889229Y-14952460D01*
X5889229Y-14952460D02*
X5870182Y-14961984D01*
X5870182Y-14961984D02*
X5851134Y-14961984D01*
X5851134Y-14961984D02*
X5832086Y-14952460D01*
X5832086Y-14952460D02*
X5822563Y-14942936D01*
X5822563Y-14942936D02*
X5813039Y-14923888D01*
X5813039Y-14923888D02*
X5803515Y-14885793D01*
X5803515Y-14885793D02*
X5803515Y-14838174D01*
X5803515Y-14838174D02*
X5813039Y-14800079D01*
X5813039Y-14800079D02*
X5822563Y-14781031D01*
X5822563Y-14781031D02*
X5832086Y-14771508D01*
X5832086Y-14771508D02*
X5851134Y-14761984D01*
X6003515Y-14942936D02*
X6013039Y-14952460D01*
X6013039Y-14952460D02*
X6003515Y-14961984D01*
X6003515Y-14961984D02*
X5993991Y-14952460D01*
X5993991Y-14952460D02*
X6003515Y-14942936D01*
X6003515Y-14942936D02*
X6003515Y-14961984D01*
X6136848Y-14761984D02*
X6155896Y-14761984D01*
X6155896Y-14761984D02*
X6174944Y-14771508D01*
X6174944Y-14771508D02*
X6184467Y-14781031D01*
X6184467Y-14781031D02*
X6193991Y-14800079D01*
X6193991Y-14800079D02*
X6203515Y-14838174D01*
X6203515Y-14838174D02*
X6203515Y-14885793D01*
X6203515Y-14885793D02*
X6193991Y-14923888D01*
X6193991Y-14923888D02*
X6184467Y-14942936D01*
X6184467Y-14942936D02*
X6174944Y-14952460D01*
X6174944Y-14952460D02*
X6155896Y-14961984D01*
X6155896Y-14961984D02*
X6136848Y-14961984D01*
X6136848Y-14961984D02*
X6117801Y-14952460D01*
X6117801Y-14952460D02*
X6108277Y-14942936D01*
X6108277Y-14942936D02*
X6098753Y-14923888D01*
X6098753Y-14923888D02*
X6089229Y-14885793D01*
X6089229Y-14885793D02*
X6089229Y-14838174D01*
X6089229Y-14838174D02*
X6098753Y-14800079D01*
X6098753Y-14800079D02*
X6108277Y-14781031D01*
X6108277Y-14781031D02*
X6117801Y-14771508D01*
X6117801Y-14771508D02*
X6136848Y-14761984D01*
X6270182Y-14761984D02*
X6393991Y-14761984D01*
X6393991Y-14761984D02*
X6327325Y-14838174D01*
X6327325Y-14838174D02*
X6355896Y-14838174D01*
X6355896Y-14838174D02*
X6374944Y-14847698D01*
X6374944Y-14847698D02*
X6384467Y-14857222D01*
X6384467Y-14857222D02*
X6393991Y-14876269D01*
X6393991Y-14876269D02*
X6393991Y-14923888D01*
X6393991Y-14923888D02*
X6384467Y-14942936D01*
X6384467Y-14942936D02*
X6374944Y-14952460D01*
X6374944Y-14952460D02*
X6355896Y-14961984D01*
X6355896Y-14961984D02*
X6298753Y-14961984D01*
X6298753Y-14961984D02*
X6279706Y-14952460D01*
X6279706Y-14952460D02*
X6270182Y-14942936D01*
X6574944Y-14761984D02*
X6479706Y-14761984D01*
X6479706Y-14761984D02*
X6470182Y-14857222D01*
X6470182Y-14857222D02*
X6479706Y-14847698D01*
X6479706Y-14847698D02*
X6498753Y-14838174D01*
X6498753Y-14838174D02*
X6546372Y-14838174D01*
X6546372Y-14838174D02*
X6565420Y-14847698D01*
X6565420Y-14847698D02*
X6574944Y-14857222D01*
X6574944Y-14857222D02*
X6584467Y-14876269D01*
X6584467Y-14876269D02*
X6584467Y-14923888D01*
X6584467Y-14923888D02*
X6574944Y-14942936D01*
X6574944Y-14942936D02*
X6565420Y-14952460D01*
X6565420Y-14952460D02*
X6546372Y-14961984D01*
X6546372Y-14961984D02*
X6498753Y-14961984D01*
X6498753Y-14961984D02*
X6479706Y-14952460D01*
X6479706Y-14952460D02*
X6470182Y-14942936D01*
X6755896Y-14828650D02*
X6755896Y-14961984D01*
X6708277Y-14752460D02*
X6660658Y-14895317D01*
X6660658Y-14895317D02*
X6784467Y-14895317D01*
X6851134Y-14761984D02*
X6851134Y-14800079D01*
X6927325Y-14761984D02*
X6927325Y-14800079D01*
X7222563Y-15038174D02*
X7213039Y-15028650D01*
X7213039Y-15028650D02*
X7193991Y-15000079D01*
X7193991Y-15000079D02*
X7184468Y-14981031D01*
X7184468Y-14981031D02*
X7174944Y-14952460D01*
X7174944Y-14952460D02*
X7165420Y-14904841D01*
X7165420Y-14904841D02*
X7165420Y-14866746D01*
X7165420Y-14866746D02*
X7174944Y-14819127D01*
X7174944Y-14819127D02*
X7184468Y-14790555D01*
X7184468Y-14790555D02*
X7193991Y-14771508D01*
X7193991Y-14771508D02*
X7213039Y-14742936D01*
X7213039Y-14742936D02*
X7222563Y-14733412D01*
X7289229Y-14781031D02*
X7298753Y-14771508D01*
X7298753Y-14771508D02*
X7317801Y-14761984D01*
X7317801Y-14761984D02*
X7365420Y-14761984D01*
X7365420Y-14761984D02*
X7384468Y-14771508D01*
X7384468Y-14771508D02*
X7393991Y-14781031D01*
X7393991Y-14781031D02*
X7403515Y-14800079D01*
X7403515Y-14800079D02*
X7403515Y-14819127D01*
X7403515Y-14819127D02*
X7393991Y-14847698D01*
X7393991Y-14847698D02*
X7279706Y-14961984D01*
X7279706Y-14961984D02*
X7403515Y-14961984D01*
X7641610Y-14961984D02*
X7641610Y-14761984D01*
X7727325Y-14961984D02*
X7727325Y-14857222D01*
X7727325Y-14857222D02*
X7717801Y-14838174D01*
X7717801Y-14838174D02*
X7698753Y-14828650D01*
X7698753Y-14828650D02*
X7670182Y-14828650D01*
X7670182Y-14828650D02*
X7651134Y-14838174D01*
X7651134Y-14838174D02*
X7641610Y-14847698D01*
X7851134Y-14961984D02*
X7832087Y-14952460D01*
X7832087Y-14952460D02*
X7822563Y-14942936D01*
X7822563Y-14942936D02*
X7813039Y-14923888D01*
X7813039Y-14923888D02*
X7813039Y-14866746D01*
X7813039Y-14866746D02*
X7822563Y-14847698D01*
X7822563Y-14847698D02*
X7832087Y-14838174D01*
X7832087Y-14838174D02*
X7851134Y-14828650D01*
X7851134Y-14828650D02*
X7879706Y-14828650D01*
X7879706Y-14828650D02*
X7898753Y-14838174D01*
X7898753Y-14838174D02*
X7908277Y-14847698D01*
X7908277Y-14847698D02*
X7917801Y-14866746D01*
X7917801Y-14866746D02*
X7917801Y-14923888D01*
X7917801Y-14923888D02*
X7908277Y-14942936D01*
X7908277Y-14942936D02*
X7898753Y-14952460D01*
X7898753Y-14952460D02*
X7879706Y-14961984D01*
X7879706Y-14961984D02*
X7851134Y-14961984D01*
X8032087Y-14961984D02*
X8013039Y-14952460D01*
X8013039Y-14952460D02*
X8003515Y-14933412D01*
X8003515Y-14933412D02*
X8003515Y-14761984D01*
X8184468Y-14952460D02*
X8165420Y-14961984D01*
X8165420Y-14961984D02*
X8127325Y-14961984D01*
X8127325Y-14961984D02*
X8108277Y-14952460D01*
X8108277Y-14952460D02*
X8098753Y-14933412D01*
X8098753Y-14933412D02*
X8098753Y-14857222D01*
X8098753Y-14857222D02*
X8108277Y-14838174D01*
X8108277Y-14838174D02*
X8127325Y-14828650D01*
X8127325Y-14828650D02*
X8165420Y-14828650D01*
X8165420Y-14828650D02*
X8184468Y-14838174D01*
X8184468Y-14838174D02*
X8193991Y-14857222D01*
X8193991Y-14857222D02*
X8193991Y-14876269D01*
X8193991Y-14876269D02*
X8098753Y-14895317D01*
X8270182Y-14952460D02*
X8289230Y-14961984D01*
X8289230Y-14961984D02*
X8327325Y-14961984D01*
X8327325Y-14961984D02*
X8346372Y-14952460D01*
X8346372Y-14952460D02*
X8355896Y-14933412D01*
X8355896Y-14933412D02*
X8355896Y-14923888D01*
X8355896Y-14923888D02*
X8346372Y-14904841D01*
X8346372Y-14904841D02*
X8327325Y-14895317D01*
X8327325Y-14895317D02*
X8298753Y-14895317D01*
X8298753Y-14895317D02*
X8279706Y-14885793D01*
X8279706Y-14885793D02*
X8270182Y-14866746D01*
X8270182Y-14866746D02*
X8270182Y-14857222D01*
X8270182Y-14857222D02*
X8279706Y-14838174D01*
X8279706Y-14838174D02*
X8298753Y-14828650D01*
X8298753Y-14828650D02*
X8327325Y-14828650D01*
X8327325Y-14828650D02*
X8346372Y-14838174D01*
X8422563Y-15038174D02*
X8432087Y-15028650D01*
X8432087Y-15028650D02*
X8451134Y-15000079D01*
X8451134Y-15000079D02*
X8460658Y-14981031D01*
X8460658Y-14981031D02*
X8470182Y-14952460D01*
X8470182Y-14952460D02*
X8479706Y-14904841D01*
X8479706Y-14904841D02*
X8479706Y-14866746D01*
X8479706Y-14866746D02*
X8470182Y-14819127D01*
X8470182Y-14819127D02*
X8460658Y-14790555D01*
X8460658Y-14790555D02*
X8451134Y-14771508D01*
X8451134Y-14771508D02*
X8432087Y-14742936D01*
X8432087Y-14742936D02*
X8422563Y-14733412D01*
D12*
X3632856Y-15169856D02*
X3632856Y-15099144D01*
X3562144Y-15099144D01*
X3562144Y-15169856D01*
X3632856Y-15169856D01*
D11*
X4013039Y-15225984D02*
X3898753Y-15225984D01*
X3955896Y-15225984D02*
X3955896Y-15025984D01*
X3955896Y-15025984D02*
X3936848Y-15054555D01*
X3936848Y-15054555D02*
X3917801Y-15073603D01*
X3917801Y-15073603D02*
X3898753Y-15083127D01*
X4098753Y-15206936D02*
X4108277Y-15216460D01*
X4108277Y-15216460D02*
X4098753Y-15225984D01*
X4098753Y-15225984D02*
X4089229Y-15216460D01*
X4089229Y-15216460D02*
X4098753Y-15206936D01*
X4098753Y-15206936D02*
X4098753Y-15225984D01*
X4232086Y-15025984D02*
X4251134Y-15025984D01*
X4251134Y-15025984D02*
X4270182Y-15035508D01*
X4270182Y-15035508D02*
X4279705Y-15045031D01*
X4279705Y-15045031D02*
X4289229Y-15064079D01*
X4289229Y-15064079D02*
X4298753Y-15102174D01*
X4298753Y-15102174D02*
X4298753Y-15149793D01*
X4298753Y-15149793D02*
X4289229Y-15187888D01*
X4289229Y-15187888D02*
X4279705Y-15206936D01*
X4279705Y-15206936D02*
X4270182Y-15216460D01*
X4270182Y-15216460D02*
X4251134Y-15225984D01*
X4251134Y-15225984D02*
X4232086Y-15225984D01*
X4232086Y-15225984D02*
X4213039Y-15216460D01*
X4213039Y-15216460D02*
X4203515Y-15206936D01*
X4203515Y-15206936D02*
X4193991Y-15187888D01*
X4193991Y-15187888D02*
X4184467Y-15149793D01*
X4184467Y-15149793D02*
X4184467Y-15102174D01*
X4184467Y-15102174D02*
X4193991Y-15064079D01*
X4193991Y-15064079D02*
X4203515Y-15045031D01*
X4203515Y-15045031D02*
X4213039Y-15035508D01*
X4213039Y-15035508D02*
X4232086Y-15025984D01*
X4422563Y-15025984D02*
X4441610Y-15025984D01*
X4441610Y-15025984D02*
X4460658Y-15035508D01*
X4460658Y-15035508D02*
X4470182Y-15045031D01*
X4470182Y-15045031D02*
X4479705Y-15064079D01*
X4479705Y-15064079D02*
X4489229Y-15102174D01*
X4489229Y-15102174D02*
X4489229Y-15149793D01*
X4489229Y-15149793D02*
X4479705Y-15187888D01*
X4479705Y-15187888D02*
X4470182Y-15206936D01*
X4470182Y-15206936D02*
X4460658Y-15216460D01*
X4460658Y-15216460D02*
X4441610Y-15225984D01*
X4441610Y-15225984D02*
X4422563Y-15225984D01*
X4422563Y-15225984D02*
X4403515Y-15216460D01*
X4403515Y-15216460D02*
X4393991Y-15206936D01*
X4393991Y-15206936D02*
X4384467Y-15187888D01*
X4384467Y-15187888D02*
X4374944Y-15149793D01*
X4374944Y-15149793D02*
X4374944Y-15102174D01*
X4374944Y-15102174D02*
X4384467Y-15064079D01*
X4384467Y-15064079D02*
X4393991Y-15045031D01*
X4393991Y-15045031D02*
X4403515Y-15035508D01*
X4403515Y-15035508D02*
X4422563Y-15025984D01*
X4613039Y-15025984D02*
X4632086Y-15025984D01*
X4632086Y-15025984D02*
X4651134Y-15035508D01*
X4651134Y-15035508D02*
X4660658Y-15045031D01*
X4660658Y-15045031D02*
X4670182Y-15064079D01*
X4670182Y-15064079D02*
X4679705Y-15102174D01*
X4679705Y-15102174D02*
X4679705Y-15149793D01*
X4679705Y-15149793D02*
X4670182Y-15187888D01*
X4670182Y-15187888D02*
X4660658Y-15206936D01*
X4660658Y-15206936D02*
X4651134Y-15216460D01*
X4651134Y-15216460D02*
X4632086Y-15225984D01*
X4632086Y-15225984D02*
X4613039Y-15225984D01*
X4613039Y-15225984D02*
X4593991Y-15216460D01*
X4593991Y-15216460D02*
X4584467Y-15206936D01*
X4584467Y-15206936D02*
X4574944Y-15187888D01*
X4574944Y-15187888D02*
X4565420Y-15149793D01*
X4565420Y-15149793D02*
X4565420Y-15102174D01*
X4565420Y-15102174D02*
X4574944Y-15064079D01*
X4574944Y-15064079D02*
X4584467Y-15045031D01*
X4584467Y-15045031D02*
X4593991Y-15035508D01*
X4593991Y-15035508D02*
X4613039Y-15025984D01*
X4765420Y-15225984D02*
X4765420Y-15092650D01*
X4765420Y-15111698D02*
X4774944Y-15102174D01*
X4774944Y-15102174D02*
X4793991Y-15092650D01*
X4793991Y-15092650D02*
X4822563Y-15092650D01*
X4822563Y-15092650D02*
X4841610Y-15102174D01*
X4841610Y-15102174D02*
X4851134Y-15121222D01*
X4851134Y-15121222D02*
X4851134Y-15225984D01*
X4851134Y-15121222D02*
X4860658Y-15102174D01*
X4860658Y-15102174D02*
X4879705Y-15092650D01*
X4879705Y-15092650D02*
X4908277Y-15092650D01*
X4908277Y-15092650D02*
X4927325Y-15102174D01*
X4927325Y-15102174D02*
X4936848Y-15121222D01*
X4936848Y-15121222D02*
X4936848Y-15225984D01*
X5032086Y-15225984D02*
X5032086Y-15092650D01*
X5032086Y-15111698D02*
X5041610Y-15102174D01*
X5041610Y-15102174D02*
X5060658Y-15092650D01*
X5060658Y-15092650D02*
X5089229Y-15092650D01*
X5089229Y-15092650D02*
X5108277Y-15102174D01*
X5108277Y-15102174D02*
X5117801Y-15121222D01*
X5117801Y-15121222D02*
X5117801Y-15225984D01*
X5117801Y-15121222D02*
X5127325Y-15102174D01*
X5127325Y-15102174D02*
X5146372Y-15092650D01*
X5146372Y-15092650D02*
X5174944Y-15092650D01*
X5174944Y-15092650D02*
X5193991Y-15102174D01*
X5193991Y-15102174D02*
X5203515Y-15121222D01*
X5203515Y-15121222D02*
X5203515Y-15225984D01*
X5593991Y-15016460D02*
X5422563Y-15273603D01*
X5851134Y-15025984D02*
X5870182Y-15025984D01*
X5870182Y-15025984D02*
X5889229Y-15035508D01*
X5889229Y-15035508D02*
X5898753Y-15045031D01*
X5898753Y-15045031D02*
X5908277Y-15064079D01*
X5908277Y-15064079D02*
X5917801Y-15102174D01*
X5917801Y-15102174D02*
X5917801Y-15149793D01*
X5917801Y-15149793D02*
X5908277Y-15187888D01*
X5908277Y-15187888D02*
X5898753Y-15206936D01*
X5898753Y-15206936D02*
X5889229Y-15216460D01*
X5889229Y-15216460D02*
X5870182Y-15225984D01*
X5870182Y-15225984D02*
X5851134Y-15225984D01*
X5851134Y-15225984D02*
X5832086Y-15216460D01*
X5832086Y-15216460D02*
X5822563Y-15206936D01*
X5822563Y-15206936D02*
X5813039Y-15187888D01*
X5813039Y-15187888D02*
X5803515Y-15149793D01*
X5803515Y-15149793D02*
X5803515Y-15102174D01*
X5803515Y-15102174D02*
X5813039Y-15064079D01*
X5813039Y-15064079D02*
X5822563Y-15045031D01*
X5822563Y-15045031D02*
X5832086Y-15035508D01*
X5832086Y-15035508D02*
X5851134Y-15025984D01*
X6003515Y-15206936D02*
X6013039Y-15216460D01*
X6013039Y-15216460D02*
X6003515Y-15225984D01*
X6003515Y-15225984D02*
X5993991Y-15216460D01*
X5993991Y-15216460D02*
X6003515Y-15206936D01*
X6003515Y-15206936D02*
X6003515Y-15225984D01*
X6136848Y-15025984D02*
X6155896Y-15025984D01*
X6155896Y-15025984D02*
X6174944Y-15035508D01*
X6174944Y-15035508D02*
X6184467Y-15045031D01*
X6184467Y-15045031D02*
X6193991Y-15064079D01*
X6193991Y-15064079D02*
X6203515Y-15102174D01*
X6203515Y-15102174D02*
X6203515Y-15149793D01*
X6203515Y-15149793D02*
X6193991Y-15187888D01*
X6193991Y-15187888D02*
X6184467Y-15206936D01*
X6184467Y-15206936D02*
X6174944Y-15216460D01*
X6174944Y-15216460D02*
X6155896Y-15225984D01*
X6155896Y-15225984D02*
X6136848Y-15225984D01*
X6136848Y-15225984D02*
X6117801Y-15216460D01*
X6117801Y-15216460D02*
X6108277Y-15206936D01*
X6108277Y-15206936D02*
X6098753Y-15187888D01*
X6098753Y-15187888D02*
X6089229Y-15149793D01*
X6089229Y-15149793D02*
X6089229Y-15102174D01*
X6089229Y-15102174D02*
X6098753Y-15064079D01*
X6098753Y-15064079D02*
X6108277Y-15045031D01*
X6108277Y-15045031D02*
X6117801Y-15035508D01*
X6117801Y-15035508D02*
X6136848Y-15025984D01*
X6270182Y-15025984D02*
X6393991Y-15025984D01*
X6393991Y-15025984D02*
X6327325Y-15102174D01*
X6327325Y-15102174D02*
X6355896Y-15102174D01*
X6355896Y-15102174D02*
X6374944Y-15111698D01*
X6374944Y-15111698D02*
X6384467Y-15121222D01*
X6384467Y-15121222D02*
X6393991Y-15140269D01*
X6393991Y-15140269D02*
X6393991Y-15187888D01*
X6393991Y-15187888D02*
X6384467Y-15206936D01*
X6384467Y-15206936D02*
X6374944Y-15216460D01*
X6374944Y-15216460D02*
X6355896Y-15225984D01*
X6355896Y-15225984D02*
X6298753Y-15225984D01*
X6298753Y-15225984D02*
X6279706Y-15216460D01*
X6279706Y-15216460D02*
X6270182Y-15206936D01*
X6489229Y-15225984D02*
X6527325Y-15225984D01*
X6527325Y-15225984D02*
X6546372Y-15216460D01*
X6546372Y-15216460D02*
X6555896Y-15206936D01*
X6555896Y-15206936D02*
X6574944Y-15178365D01*
X6574944Y-15178365D02*
X6584467Y-15140269D01*
X6584467Y-15140269D02*
X6584467Y-15064079D01*
X6584467Y-15064079D02*
X6574944Y-15045031D01*
X6574944Y-15045031D02*
X6565420Y-15035508D01*
X6565420Y-15035508D02*
X6546372Y-15025984D01*
X6546372Y-15025984D02*
X6508277Y-15025984D01*
X6508277Y-15025984D02*
X6489229Y-15035508D01*
X6489229Y-15035508D02*
X6479706Y-15045031D01*
X6479706Y-15045031D02*
X6470182Y-15064079D01*
X6470182Y-15064079D02*
X6470182Y-15111698D01*
X6470182Y-15111698D02*
X6479706Y-15130746D01*
X6479706Y-15130746D02*
X6489229Y-15140269D01*
X6489229Y-15140269D02*
X6508277Y-15149793D01*
X6508277Y-15149793D02*
X6546372Y-15149793D01*
X6546372Y-15149793D02*
X6565420Y-15140269D01*
X6565420Y-15140269D02*
X6574944Y-15130746D01*
X6574944Y-15130746D02*
X6584467Y-15111698D01*
X6755896Y-15092650D02*
X6755896Y-15225984D01*
X6708277Y-15016460D02*
X6660658Y-15159317D01*
X6660658Y-15159317D02*
X6784467Y-15159317D01*
X6851134Y-15025984D02*
X6851134Y-15064079D01*
X6927325Y-15025984D02*
X6927325Y-15064079D01*
X7222563Y-15302174D02*
X7213039Y-15292650D01*
X7213039Y-15292650D02*
X7193991Y-15264079D01*
X7193991Y-15264079D02*
X7184468Y-15245031D01*
X7184468Y-15245031D02*
X7174944Y-15216460D01*
X7174944Y-15216460D02*
X7165420Y-15168841D01*
X7165420Y-15168841D02*
X7165420Y-15130746D01*
X7165420Y-15130746D02*
X7174944Y-15083127D01*
X7174944Y-15083127D02*
X7184468Y-15054555D01*
X7184468Y-15054555D02*
X7193991Y-15035508D01*
X7193991Y-15035508D02*
X7213039Y-15006936D01*
X7213039Y-15006936D02*
X7222563Y-14997412D01*
X7308277Y-15225984D02*
X7346372Y-15225984D01*
X7346372Y-15225984D02*
X7365420Y-15216460D01*
X7365420Y-15216460D02*
X7374944Y-15206936D01*
X7374944Y-15206936D02*
X7393991Y-15178365D01*
X7393991Y-15178365D02*
X7403515Y-15140269D01*
X7403515Y-15140269D02*
X7403515Y-15064079D01*
X7403515Y-15064079D02*
X7393991Y-15045031D01*
X7393991Y-15045031D02*
X7384468Y-15035508D01*
X7384468Y-15035508D02*
X7365420Y-15025984D01*
X7365420Y-15025984D02*
X7327325Y-15025984D01*
X7327325Y-15025984D02*
X7308277Y-15035508D01*
X7308277Y-15035508D02*
X7298753Y-15045031D01*
X7298753Y-15045031D02*
X7289229Y-15064079D01*
X7289229Y-15064079D02*
X7289229Y-15111698D01*
X7289229Y-15111698D02*
X7298753Y-15130746D01*
X7298753Y-15130746D02*
X7308277Y-15140269D01*
X7308277Y-15140269D02*
X7327325Y-15149793D01*
X7327325Y-15149793D02*
X7365420Y-15149793D01*
X7365420Y-15149793D02*
X7384468Y-15140269D01*
X7384468Y-15140269D02*
X7393991Y-15130746D01*
X7393991Y-15130746D02*
X7403515Y-15111698D01*
X7584468Y-15025984D02*
X7489229Y-15025984D01*
X7489229Y-15025984D02*
X7479706Y-15121222D01*
X7479706Y-15121222D02*
X7489229Y-15111698D01*
X7489229Y-15111698D02*
X7508277Y-15102174D01*
X7508277Y-15102174D02*
X7555896Y-15102174D01*
X7555896Y-15102174D02*
X7574944Y-15111698D01*
X7574944Y-15111698D02*
X7584468Y-15121222D01*
X7584468Y-15121222D02*
X7593991Y-15140269D01*
X7593991Y-15140269D02*
X7593991Y-15187888D01*
X7593991Y-15187888D02*
X7584468Y-15206936D01*
X7584468Y-15206936D02*
X7574944Y-15216460D01*
X7574944Y-15216460D02*
X7555896Y-15225984D01*
X7555896Y-15225984D02*
X7508277Y-15225984D01*
X7508277Y-15225984D02*
X7489229Y-15216460D01*
X7489229Y-15216460D02*
X7479706Y-15206936D01*
X7832087Y-15225984D02*
X7832087Y-15025984D01*
X7917801Y-15225984D02*
X7917801Y-15121222D01*
X7917801Y-15121222D02*
X7908277Y-15102174D01*
X7908277Y-15102174D02*
X7889230Y-15092650D01*
X7889230Y-15092650D02*
X7860658Y-15092650D01*
X7860658Y-15092650D02*
X7841610Y-15102174D01*
X7841610Y-15102174D02*
X7832087Y-15111698D01*
X8041610Y-15225984D02*
X8022563Y-15216460D01*
X8022563Y-15216460D02*
X8013039Y-15206936D01*
X8013039Y-15206936D02*
X8003515Y-15187888D01*
X8003515Y-15187888D02*
X8003515Y-15130746D01*
X8003515Y-15130746D02*
X8013039Y-15111698D01*
X8013039Y-15111698D02*
X8022563Y-15102174D01*
X8022563Y-15102174D02*
X8041610Y-15092650D01*
X8041610Y-15092650D02*
X8070182Y-15092650D01*
X8070182Y-15092650D02*
X8089230Y-15102174D01*
X8089230Y-15102174D02*
X8098753Y-15111698D01*
X8098753Y-15111698D02*
X8108277Y-15130746D01*
X8108277Y-15130746D02*
X8108277Y-15187888D01*
X8108277Y-15187888D02*
X8098753Y-15206936D01*
X8098753Y-15206936D02*
X8089230Y-15216460D01*
X8089230Y-15216460D02*
X8070182Y-15225984D01*
X8070182Y-15225984D02*
X8041610Y-15225984D01*
X8222563Y-15225984D02*
X8203515Y-15216460D01*
X8203515Y-15216460D02*
X8193991Y-15197412D01*
X8193991Y-15197412D02*
X8193991Y-15025984D01*
X8374944Y-15216460D02*
X8355896Y-15225984D01*
X8355896Y-15225984D02*
X8317801Y-15225984D01*
X8317801Y-15225984D02*
X8298753Y-15216460D01*
X8298753Y-15216460D02*
X8289230Y-15197412D01*
X8289230Y-15197412D02*
X8289230Y-15121222D01*
X8289230Y-15121222D02*
X8298753Y-15102174D01*
X8298753Y-15102174D02*
X8317801Y-15092650D01*
X8317801Y-15092650D02*
X8355896Y-15092650D01*
X8355896Y-15092650D02*
X8374944Y-15102174D01*
X8374944Y-15102174D02*
X8384468Y-15121222D01*
X8384468Y-15121222D02*
X8384468Y-15140269D01*
X8384468Y-15140269D02*
X8289230Y-15159317D01*
X8460658Y-15216460D02*
X8479706Y-15225984D01*
X8479706Y-15225984D02*
X8517801Y-15225984D01*
X8517801Y-15225984D02*
X8536849Y-15216460D01*
X8536849Y-15216460D02*
X8546373Y-15197412D01*
X8546373Y-15197412D02*
X8546373Y-15187888D01*
X8546373Y-15187888D02*
X8536849Y-15168841D01*
X8536849Y-15168841D02*
X8517801Y-15159317D01*
X8517801Y-15159317D02*
X8489230Y-15159317D01*
X8489230Y-15159317D02*
X8470182Y-15149793D01*
X8470182Y-15149793D02*
X8460658Y-15130746D01*
X8460658Y-15130746D02*
X8460658Y-15121222D01*
X8460658Y-15121222D02*
X8470182Y-15102174D01*
X8470182Y-15102174D02*
X8489230Y-15092650D01*
X8489230Y-15092650D02*
X8517801Y-15092650D01*
X8517801Y-15092650D02*
X8536849Y-15102174D01*
X8613039Y-15302174D02*
X8622563Y-15292650D01*
X8622563Y-15292650D02*
X8641611Y-15264079D01*
X8641611Y-15264079D02*
X8651134Y-15245031D01*
X8651134Y-15245031D02*
X8660658Y-15216460D01*
X8660658Y-15216460D02*
X8670182Y-15168841D01*
X8670182Y-15168841D02*
X8670182Y-15130746D01*
X8670182Y-15130746D02*
X8660658Y-15083127D01*
X8660658Y-15083127D02*
X8651134Y-15054555D01*
X8651134Y-15054555D02*
X8641611Y-15035508D01*
X8641611Y-15035508D02*
X8622563Y-15006936D01*
X8622563Y-15006936D02*
X8613039Y-14997412D01*
D13*
X3592500Y-15453500D02*
X3647500Y-15398500D01*
X3592500Y-15343500D01*
X3537500Y-15398500D01*
X3592500Y-15453500D01*
D11*
X4013039Y-15489984D02*
X3898753Y-15489984D01*
X3955896Y-15489984D02*
X3955896Y-15289984D01*
X3955896Y-15289984D02*
X3936848Y-15318555D01*
X3936848Y-15318555D02*
X3917801Y-15337603D01*
X3917801Y-15337603D02*
X3898753Y-15347127D01*
X4098753Y-15470936D02*
X4108277Y-15480460D01*
X4108277Y-15480460D02*
X4098753Y-15489984D01*
X4098753Y-15489984D02*
X4089229Y-15480460D01*
X4089229Y-15480460D02*
X4098753Y-15470936D01*
X4098753Y-15470936D02*
X4098753Y-15489984D01*
X4298753Y-15489984D02*
X4184467Y-15489984D01*
X4241610Y-15489984D02*
X4241610Y-15289984D01*
X4241610Y-15289984D02*
X4222563Y-15318555D01*
X4222563Y-15318555D02*
X4203515Y-15337603D01*
X4203515Y-15337603D02*
X4184467Y-15347127D01*
X4422563Y-15289984D02*
X4441610Y-15289984D01*
X4441610Y-15289984D02*
X4460658Y-15299508D01*
X4460658Y-15299508D02*
X4470182Y-15309031D01*
X4470182Y-15309031D02*
X4479705Y-15328079D01*
X4479705Y-15328079D02*
X4489229Y-15366174D01*
X4489229Y-15366174D02*
X4489229Y-15413793D01*
X4489229Y-15413793D02*
X4479705Y-15451888D01*
X4479705Y-15451888D02*
X4470182Y-15470936D01*
X4470182Y-15470936D02*
X4460658Y-15480460D01*
X4460658Y-15480460D02*
X4441610Y-15489984D01*
X4441610Y-15489984D02*
X4422563Y-15489984D01*
X4422563Y-15489984D02*
X4403515Y-15480460D01*
X4403515Y-15480460D02*
X4393991Y-15470936D01*
X4393991Y-15470936D02*
X4384467Y-15451888D01*
X4384467Y-15451888D02*
X4374944Y-15413793D01*
X4374944Y-15413793D02*
X4374944Y-15366174D01*
X4374944Y-15366174D02*
X4384467Y-15328079D01*
X4384467Y-15328079D02*
X4393991Y-15309031D01*
X4393991Y-15309031D02*
X4403515Y-15299508D01*
X4403515Y-15299508D02*
X4422563Y-15289984D01*
X4613039Y-15289984D02*
X4632086Y-15289984D01*
X4632086Y-15289984D02*
X4651134Y-15299508D01*
X4651134Y-15299508D02*
X4660658Y-15309031D01*
X4660658Y-15309031D02*
X4670182Y-15328079D01*
X4670182Y-15328079D02*
X4679705Y-15366174D01*
X4679705Y-15366174D02*
X4679705Y-15413793D01*
X4679705Y-15413793D02*
X4670182Y-15451888D01*
X4670182Y-15451888D02*
X4660658Y-15470936D01*
X4660658Y-15470936D02*
X4651134Y-15480460D01*
X4651134Y-15480460D02*
X4632086Y-15489984D01*
X4632086Y-15489984D02*
X4613039Y-15489984D01*
X4613039Y-15489984D02*
X4593991Y-15480460D01*
X4593991Y-15480460D02*
X4584467Y-15470936D01*
X4584467Y-15470936D02*
X4574944Y-15451888D01*
X4574944Y-15451888D02*
X4565420Y-15413793D01*
X4565420Y-15413793D02*
X4565420Y-15366174D01*
X4565420Y-15366174D02*
X4574944Y-15328079D01*
X4574944Y-15328079D02*
X4584467Y-15309031D01*
X4584467Y-15309031D02*
X4593991Y-15299508D01*
X4593991Y-15299508D02*
X4613039Y-15289984D01*
X4765420Y-15489984D02*
X4765420Y-15356650D01*
X4765420Y-15375698D02*
X4774944Y-15366174D01*
X4774944Y-15366174D02*
X4793991Y-15356650D01*
X4793991Y-15356650D02*
X4822563Y-15356650D01*
X4822563Y-15356650D02*
X4841610Y-15366174D01*
X4841610Y-15366174D02*
X4851134Y-15385222D01*
X4851134Y-15385222D02*
X4851134Y-15489984D01*
X4851134Y-15385222D02*
X4860658Y-15366174D01*
X4860658Y-15366174D02*
X4879705Y-15356650D01*
X4879705Y-15356650D02*
X4908277Y-15356650D01*
X4908277Y-15356650D02*
X4927325Y-15366174D01*
X4927325Y-15366174D02*
X4936848Y-15385222D01*
X4936848Y-15385222D02*
X4936848Y-15489984D01*
X5032086Y-15489984D02*
X5032086Y-15356650D01*
X5032086Y-15375698D02*
X5041610Y-15366174D01*
X5041610Y-15366174D02*
X5060658Y-15356650D01*
X5060658Y-15356650D02*
X5089229Y-15356650D01*
X5089229Y-15356650D02*
X5108277Y-15366174D01*
X5108277Y-15366174D02*
X5117801Y-15385222D01*
X5117801Y-15385222D02*
X5117801Y-15489984D01*
X5117801Y-15385222D02*
X5127325Y-15366174D01*
X5127325Y-15366174D02*
X5146372Y-15356650D01*
X5146372Y-15356650D02*
X5174944Y-15356650D01*
X5174944Y-15356650D02*
X5193991Y-15366174D01*
X5193991Y-15366174D02*
X5203515Y-15385222D01*
X5203515Y-15385222D02*
X5203515Y-15489984D01*
X5593991Y-15280460D02*
X5422563Y-15537603D01*
X5851134Y-15289984D02*
X5870182Y-15289984D01*
X5870182Y-15289984D02*
X5889229Y-15299508D01*
X5889229Y-15299508D02*
X5898753Y-15309031D01*
X5898753Y-15309031D02*
X5908277Y-15328079D01*
X5908277Y-15328079D02*
X5917801Y-15366174D01*
X5917801Y-15366174D02*
X5917801Y-15413793D01*
X5917801Y-15413793D02*
X5908277Y-15451888D01*
X5908277Y-15451888D02*
X5898753Y-15470936D01*
X5898753Y-15470936D02*
X5889229Y-15480460D01*
X5889229Y-15480460D02*
X5870182Y-15489984D01*
X5870182Y-15489984D02*
X5851134Y-15489984D01*
X5851134Y-15489984D02*
X5832086Y-15480460D01*
X5832086Y-15480460D02*
X5822563Y-15470936D01*
X5822563Y-15470936D02*
X5813039Y-15451888D01*
X5813039Y-15451888D02*
X5803515Y-15413793D01*
X5803515Y-15413793D02*
X5803515Y-15366174D01*
X5803515Y-15366174D02*
X5813039Y-15328079D01*
X5813039Y-15328079D02*
X5822563Y-15309031D01*
X5822563Y-15309031D02*
X5832086Y-15299508D01*
X5832086Y-15299508D02*
X5851134Y-15289984D01*
X6003515Y-15470936D02*
X6013039Y-15480460D01*
X6013039Y-15480460D02*
X6003515Y-15489984D01*
X6003515Y-15489984D02*
X5993991Y-15480460D01*
X5993991Y-15480460D02*
X6003515Y-15470936D01*
X6003515Y-15470936D02*
X6003515Y-15489984D01*
X6136848Y-15289984D02*
X6155896Y-15289984D01*
X6155896Y-15289984D02*
X6174944Y-15299508D01*
X6174944Y-15299508D02*
X6184467Y-15309031D01*
X6184467Y-15309031D02*
X6193991Y-15328079D01*
X6193991Y-15328079D02*
X6203515Y-15366174D01*
X6203515Y-15366174D02*
X6203515Y-15413793D01*
X6203515Y-15413793D02*
X6193991Y-15451888D01*
X6193991Y-15451888D02*
X6184467Y-15470936D01*
X6184467Y-15470936D02*
X6174944Y-15480460D01*
X6174944Y-15480460D02*
X6155896Y-15489984D01*
X6155896Y-15489984D02*
X6136848Y-15489984D01*
X6136848Y-15489984D02*
X6117801Y-15480460D01*
X6117801Y-15480460D02*
X6108277Y-15470936D01*
X6108277Y-15470936D02*
X6098753Y-15451888D01*
X6098753Y-15451888D02*
X6089229Y-15413793D01*
X6089229Y-15413793D02*
X6089229Y-15366174D01*
X6089229Y-15366174D02*
X6098753Y-15328079D01*
X6098753Y-15328079D02*
X6108277Y-15309031D01*
X6108277Y-15309031D02*
X6117801Y-15299508D01*
X6117801Y-15299508D02*
X6136848Y-15289984D01*
X6374944Y-15356650D02*
X6374944Y-15489984D01*
X6327325Y-15280460D02*
X6279706Y-15423317D01*
X6279706Y-15423317D02*
X6403515Y-15423317D01*
X6460658Y-15289984D02*
X6584467Y-15289984D01*
X6584467Y-15289984D02*
X6517801Y-15366174D01*
X6517801Y-15366174D02*
X6546372Y-15366174D01*
X6546372Y-15366174D02*
X6565420Y-15375698D01*
X6565420Y-15375698D02*
X6574944Y-15385222D01*
X6574944Y-15385222D02*
X6584467Y-15404269D01*
X6584467Y-15404269D02*
X6584467Y-15451888D01*
X6584467Y-15451888D02*
X6574944Y-15470936D01*
X6574944Y-15470936D02*
X6565420Y-15480460D01*
X6565420Y-15480460D02*
X6546372Y-15489984D01*
X6546372Y-15489984D02*
X6489229Y-15489984D01*
X6489229Y-15489984D02*
X6470182Y-15480460D01*
X6470182Y-15480460D02*
X6460658Y-15470936D01*
X6651134Y-15289984D02*
X6774944Y-15289984D01*
X6774944Y-15289984D02*
X6708277Y-15366174D01*
X6708277Y-15366174D02*
X6736848Y-15366174D01*
X6736848Y-15366174D02*
X6755896Y-15375698D01*
X6755896Y-15375698D02*
X6765420Y-15385222D01*
X6765420Y-15385222D02*
X6774944Y-15404269D01*
X6774944Y-15404269D02*
X6774944Y-15451888D01*
X6774944Y-15451888D02*
X6765420Y-15470936D01*
X6765420Y-15470936D02*
X6755896Y-15480460D01*
X6755896Y-15480460D02*
X6736848Y-15489984D01*
X6736848Y-15489984D02*
X6679706Y-15489984D01*
X6679706Y-15489984D02*
X6660658Y-15480460D01*
X6660658Y-15480460D02*
X6651134Y-15470936D01*
X6851134Y-15289984D02*
X6851134Y-15328079D01*
X6927325Y-15289984D02*
X6927325Y-15328079D01*
X7222563Y-15566174D02*
X7213039Y-15556650D01*
X7213039Y-15556650D02*
X7193991Y-15528079D01*
X7193991Y-15528079D02*
X7184468Y-15509031D01*
X7184468Y-15509031D02*
X7174944Y-15480460D01*
X7174944Y-15480460D02*
X7165420Y-15432841D01*
X7165420Y-15432841D02*
X7165420Y-15394746D01*
X7165420Y-15394746D02*
X7174944Y-15347127D01*
X7174944Y-15347127D02*
X7184468Y-15318555D01*
X7184468Y-15318555D02*
X7193991Y-15299508D01*
X7193991Y-15299508D02*
X7213039Y-15270936D01*
X7213039Y-15270936D02*
X7222563Y-15261412D01*
X7384468Y-15356650D02*
X7384468Y-15489984D01*
X7336848Y-15280460D02*
X7289229Y-15423317D01*
X7289229Y-15423317D02*
X7413039Y-15423317D01*
X7641610Y-15489984D02*
X7641610Y-15289984D01*
X7727325Y-15489984D02*
X7727325Y-15385222D01*
X7727325Y-15385222D02*
X7717801Y-15366174D01*
X7717801Y-15366174D02*
X7698753Y-15356650D01*
X7698753Y-15356650D02*
X7670182Y-15356650D01*
X7670182Y-15356650D02*
X7651134Y-15366174D01*
X7651134Y-15366174D02*
X7641610Y-15375698D01*
X7851134Y-15489984D02*
X7832087Y-15480460D01*
X7832087Y-15480460D02*
X7822563Y-15470936D01*
X7822563Y-15470936D02*
X7813039Y-15451888D01*
X7813039Y-15451888D02*
X7813039Y-15394746D01*
X7813039Y-15394746D02*
X7822563Y-15375698D01*
X7822563Y-15375698D02*
X7832087Y-15366174D01*
X7832087Y-15366174D02*
X7851134Y-15356650D01*
X7851134Y-15356650D02*
X7879706Y-15356650D01*
X7879706Y-15356650D02*
X7898753Y-15366174D01*
X7898753Y-15366174D02*
X7908277Y-15375698D01*
X7908277Y-15375698D02*
X7917801Y-15394746D01*
X7917801Y-15394746D02*
X7917801Y-15451888D01*
X7917801Y-15451888D02*
X7908277Y-15470936D01*
X7908277Y-15470936D02*
X7898753Y-15480460D01*
X7898753Y-15480460D02*
X7879706Y-15489984D01*
X7879706Y-15489984D02*
X7851134Y-15489984D01*
X8032087Y-15489984D02*
X8013039Y-15480460D01*
X8013039Y-15480460D02*
X8003515Y-15461412D01*
X8003515Y-15461412D02*
X8003515Y-15289984D01*
X8184468Y-15480460D02*
X8165420Y-15489984D01*
X8165420Y-15489984D02*
X8127325Y-15489984D01*
X8127325Y-15489984D02*
X8108277Y-15480460D01*
X8108277Y-15480460D02*
X8098753Y-15461412D01*
X8098753Y-15461412D02*
X8098753Y-15385222D01*
X8098753Y-15385222D02*
X8108277Y-15366174D01*
X8108277Y-15366174D02*
X8127325Y-15356650D01*
X8127325Y-15356650D02*
X8165420Y-15356650D01*
X8165420Y-15356650D02*
X8184468Y-15366174D01*
X8184468Y-15366174D02*
X8193991Y-15385222D01*
X8193991Y-15385222D02*
X8193991Y-15404269D01*
X8193991Y-15404269D02*
X8098753Y-15423317D01*
X8270182Y-15480460D02*
X8289230Y-15489984D01*
X8289230Y-15489984D02*
X8327325Y-15489984D01*
X8327325Y-15489984D02*
X8346372Y-15480460D01*
X8346372Y-15480460D02*
X8355896Y-15461412D01*
X8355896Y-15461412D02*
X8355896Y-15451888D01*
X8355896Y-15451888D02*
X8346372Y-15432841D01*
X8346372Y-15432841D02*
X8327325Y-15423317D01*
X8327325Y-15423317D02*
X8298753Y-15423317D01*
X8298753Y-15423317D02*
X8279706Y-15413793D01*
X8279706Y-15413793D02*
X8270182Y-15394746D01*
X8270182Y-15394746D02*
X8270182Y-15385222D01*
X8270182Y-15385222D02*
X8279706Y-15366174D01*
X8279706Y-15366174D02*
X8298753Y-15356650D01*
X8298753Y-15356650D02*
X8327325Y-15356650D01*
X8327325Y-15356650D02*
X8346372Y-15366174D01*
X8422563Y-15566174D02*
X8432087Y-15556650D01*
X8432087Y-15556650D02*
X8451134Y-15528079D01*
X8451134Y-15528079D02*
X8460658Y-15509031D01*
X8460658Y-15509031D02*
X8470182Y-15480460D01*
X8470182Y-15480460D02*
X8479706Y-15432841D01*
X8479706Y-15432841D02*
X8479706Y-15394746D01*
X8479706Y-15394746D02*
X8470182Y-15347127D01*
X8470182Y-15347127D02*
X8460658Y-15318555D01*
X8460658Y-15318555D02*
X8451134Y-15299508D01*
X8451134Y-15299508D02*
X8432087Y-15270936D01*
X8432087Y-15270936D02*
X8422563Y-15261412D01*
D14*
X3517500Y-15597500D02*
X3647500Y-15727500D01*
X3647500Y-15597500D02*
X3517500Y-15727500D01*
X3647500Y-15662500D02*
G75*
G02*
X3517500Y-15662500I-65000J0D01*
G01*
X3517500Y-15662500D02*
G75*
G02*
X3647500Y-15662500I65000J0D01*
G01*
D11*
X4013039Y-15753984D02*
X3898753Y-15753984D01*
X3955896Y-15753984D02*
X3955896Y-15553984D01*
X3955896Y-15553984D02*
X3936848Y-15582555D01*
X3936848Y-15582555D02*
X3917801Y-15601603D01*
X3917801Y-15601603D02*
X3898753Y-15611127D01*
X4098753Y-15734936D02*
X4108277Y-15744460D01*
X4108277Y-15744460D02*
X4098753Y-15753984D01*
X4098753Y-15753984D02*
X4089229Y-15744460D01*
X4089229Y-15744460D02*
X4098753Y-15734936D01*
X4098753Y-15734936D02*
X4098753Y-15753984D01*
X4174943Y-15553984D02*
X4298753Y-15553984D01*
X4298753Y-15553984D02*
X4232086Y-15630174D01*
X4232086Y-15630174D02*
X4260658Y-15630174D01*
X4260658Y-15630174D02*
X4279705Y-15639698D01*
X4279705Y-15639698D02*
X4289229Y-15649222D01*
X4289229Y-15649222D02*
X4298753Y-15668269D01*
X4298753Y-15668269D02*
X4298753Y-15715888D01*
X4298753Y-15715888D02*
X4289229Y-15734936D01*
X4289229Y-15734936D02*
X4279705Y-15744460D01*
X4279705Y-15744460D02*
X4260658Y-15753984D01*
X4260658Y-15753984D02*
X4203515Y-15753984D01*
X4203515Y-15753984D02*
X4184467Y-15744460D01*
X4184467Y-15744460D02*
X4174943Y-15734936D01*
X4422563Y-15553984D02*
X4441610Y-15553984D01*
X4441610Y-15553984D02*
X4460658Y-15563508D01*
X4460658Y-15563508D02*
X4470182Y-15573031D01*
X4470182Y-15573031D02*
X4479705Y-15592079D01*
X4479705Y-15592079D02*
X4489229Y-15630174D01*
X4489229Y-15630174D02*
X4489229Y-15677793D01*
X4489229Y-15677793D02*
X4479705Y-15715888D01*
X4479705Y-15715888D02*
X4470182Y-15734936D01*
X4470182Y-15734936D02*
X4460658Y-15744460D01*
X4460658Y-15744460D02*
X4441610Y-15753984D01*
X4441610Y-15753984D02*
X4422563Y-15753984D01*
X4422563Y-15753984D02*
X4403515Y-15744460D01*
X4403515Y-15744460D02*
X4393991Y-15734936D01*
X4393991Y-15734936D02*
X4384467Y-15715888D01*
X4384467Y-15715888D02*
X4374944Y-15677793D01*
X4374944Y-15677793D02*
X4374944Y-15630174D01*
X4374944Y-15630174D02*
X4384467Y-15592079D01*
X4384467Y-15592079D02*
X4393991Y-15573031D01*
X4393991Y-15573031D02*
X4403515Y-15563508D01*
X4403515Y-15563508D02*
X4422563Y-15553984D01*
X4613039Y-15553984D02*
X4632086Y-15553984D01*
X4632086Y-15553984D02*
X4651134Y-15563508D01*
X4651134Y-15563508D02*
X4660658Y-15573031D01*
X4660658Y-15573031D02*
X4670182Y-15592079D01*
X4670182Y-15592079D02*
X4679705Y-15630174D01*
X4679705Y-15630174D02*
X4679705Y-15677793D01*
X4679705Y-15677793D02*
X4670182Y-15715888D01*
X4670182Y-15715888D02*
X4660658Y-15734936D01*
X4660658Y-15734936D02*
X4651134Y-15744460D01*
X4651134Y-15744460D02*
X4632086Y-15753984D01*
X4632086Y-15753984D02*
X4613039Y-15753984D01*
X4613039Y-15753984D02*
X4593991Y-15744460D01*
X4593991Y-15744460D02*
X4584467Y-15734936D01*
X4584467Y-15734936D02*
X4574944Y-15715888D01*
X4574944Y-15715888D02*
X4565420Y-15677793D01*
X4565420Y-15677793D02*
X4565420Y-15630174D01*
X4565420Y-15630174D02*
X4574944Y-15592079D01*
X4574944Y-15592079D02*
X4584467Y-15573031D01*
X4584467Y-15573031D02*
X4593991Y-15563508D01*
X4593991Y-15563508D02*
X4613039Y-15553984D01*
X4765420Y-15753984D02*
X4765420Y-15620650D01*
X4765420Y-15639698D02*
X4774944Y-15630174D01*
X4774944Y-15630174D02*
X4793991Y-15620650D01*
X4793991Y-15620650D02*
X4822563Y-15620650D01*
X4822563Y-15620650D02*
X4841610Y-15630174D01*
X4841610Y-15630174D02*
X4851134Y-15649222D01*
X4851134Y-15649222D02*
X4851134Y-15753984D01*
X4851134Y-15649222D02*
X4860658Y-15630174D01*
X4860658Y-15630174D02*
X4879705Y-15620650D01*
X4879705Y-15620650D02*
X4908277Y-15620650D01*
X4908277Y-15620650D02*
X4927325Y-15630174D01*
X4927325Y-15630174D02*
X4936848Y-15649222D01*
X4936848Y-15649222D02*
X4936848Y-15753984D01*
X5032086Y-15753984D02*
X5032086Y-15620650D01*
X5032086Y-15639698D02*
X5041610Y-15630174D01*
X5041610Y-15630174D02*
X5060658Y-15620650D01*
X5060658Y-15620650D02*
X5089229Y-15620650D01*
X5089229Y-15620650D02*
X5108277Y-15630174D01*
X5108277Y-15630174D02*
X5117801Y-15649222D01*
X5117801Y-15649222D02*
X5117801Y-15753984D01*
X5117801Y-15649222D02*
X5127325Y-15630174D01*
X5127325Y-15630174D02*
X5146372Y-15620650D01*
X5146372Y-15620650D02*
X5174944Y-15620650D01*
X5174944Y-15620650D02*
X5193991Y-15630174D01*
X5193991Y-15630174D02*
X5203515Y-15649222D01*
X5203515Y-15649222D02*
X5203515Y-15753984D01*
X5593991Y-15544460D02*
X5422563Y-15801603D01*
X5851134Y-15553984D02*
X5870182Y-15553984D01*
X5870182Y-15553984D02*
X5889229Y-15563508D01*
X5889229Y-15563508D02*
X5898753Y-15573031D01*
X5898753Y-15573031D02*
X5908277Y-15592079D01*
X5908277Y-15592079D02*
X5917801Y-15630174D01*
X5917801Y-15630174D02*
X5917801Y-15677793D01*
X5917801Y-15677793D02*
X5908277Y-15715888D01*
X5908277Y-15715888D02*
X5898753Y-15734936D01*
X5898753Y-15734936D02*
X5889229Y-15744460D01*
X5889229Y-15744460D02*
X5870182Y-15753984D01*
X5870182Y-15753984D02*
X5851134Y-15753984D01*
X5851134Y-15753984D02*
X5832086Y-15744460D01*
X5832086Y-15744460D02*
X5822563Y-15734936D01*
X5822563Y-15734936D02*
X5813039Y-15715888D01*
X5813039Y-15715888D02*
X5803515Y-15677793D01*
X5803515Y-15677793D02*
X5803515Y-15630174D01*
X5803515Y-15630174D02*
X5813039Y-15592079D01*
X5813039Y-15592079D02*
X5822563Y-15573031D01*
X5822563Y-15573031D02*
X5832086Y-15563508D01*
X5832086Y-15563508D02*
X5851134Y-15553984D01*
X6003515Y-15734936D02*
X6013039Y-15744460D01*
X6013039Y-15744460D02*
X6003515Y-15753984D01*
X6003515Y-15753984D02*
X5993991Y-15744460D01*
X5993991Y-15744460D02*
X6003515Y-15734936D01*
X6003515Y-15734936D02*
X6003515Y-15753984D01*
X6136848Y-15553984D02*
X6155896Y-15553984D01*
X6155896Y-15553984D02*
X6174944Y-15563508D01*
X6174944Y-15563508D02*
X6184467Y-15573031D01*
X6184467Y-15573031D02*
X6193991Y-15592079D01*
X6193991Y-15592079D02*
X6203515Y-15630174D01*
X6203515Y-15630174D02*
X6203515Y-15677793D01*
X6203515Y-15677793D02*
X6193991Y-15715888D01*
X6193991Y-15715888D02*
X6184467Y-15734936D01*
X6184467Y-15734936D02*
X6174944Y-15744460D01*
X6174944Y-15744460D02*
X6155896Y-15753984D01*
X6155896Y-15753984D02*
X6136848Y-15753984D01*
X6136848Y-15753984D02*
X6117801Y-15744460D01*
X6117801Y-15744460D02*
X6108277Y-15734936D01*
X6108277Y-15734936D02*
X6098753Y-15715888D01*
X6098753Y-15715888D02*
X6089229Y-15677793D01*
X6089229Y-15677793D02*
X6089229Y-15630174D01*
X6089229Y-15630174D02*
X6098753Y-15592079D01*
X6098753Y-15592079D02*
X6108277Y-15573031D01*
X6108277Y-15573031D02*
X6117801Y-15563508D01*
X6117801Y-15563508D02*
X6136848Y-15553984D01*
X6384467Y-15553984D02*
X6289229Y-15553984D01*
X6289229Y-15553984D02*
X6279706Y-15649222D01*
X6279706Y-15649222D02*
X6289229Y-15639698D01*
X6289229Y-15639698D02*
X6308277Y-15630174D01*
X6308277Y-15630174D02*
X6355896Y-15630174D01*
X6355896Y-15630174D02*
X6374944Y-15639698D01*
X6374944Y-15639698D02*
X6384467Y-15649222D01*
X6384467Y-15649222D02*
X6393991Y-15668269D01*
X6393991Y-15668269D02*
X6393991Y-15715888D01*
X6393991Y-15715888D02*
X6384467Y-15734936D01*
X6384467Y-15734936D02*
X6374944Y-15744460D01*
X6374944Y-15744460D02*
X6355896Y-15753984D01*
X6355896Y-15753984D02*
X6308277Y-15753984D01*
X6308277Y-15753984D02*
X6289229Y-15744460D01*
X6289229Y-15744460D02*
X6279706Y-15734936D01*
X6584467Y-15753984D02*
X6470182Y-15753984D01*
X6527325Y-15753984D02*
X6527325Y-15553984D01*
X6527325Y-15553984D02*
X6508277Y-15582555D01*
X6508277Y-15582555D02*
X6489229Y-15601603D01*
X6489229Y-15601603D02*
X6470182Y-15611127D01*
X6660658Y-15573031D02*
X6670182Y-15563508D01*
X6670182Y-15563508D02*
X6689229Y-15553984D01*
X6689229Y-15553984D02*
X6736848Y-15553984D01*
X6736848Y-15553984D02*
X6755896Y-15563508D01*
X6755896Y-15563508D02*
X6765420Y-15573031D01*
X6765420Y-15573031D02*
X6774944Y-15592079D01*
X6774944Y-15592079D02*
X6774944Y-15611127D01*
X6774944Y-15611127D02*
X6765420Y-15639698D01*
X6765420Y-15639698D02*
X6651134Y-15753984D01*
X6651134Y-15753984D02*
X6774944Y-15753984D01*
X6851134Y-15553984D02*
X6851134Y-15592079D01*
X6927325Y-15553984D02*
X6927325Y-15592079D01*
X7222563Y-15830174D02*
X7213039Y-15820650D01*
X7213039Y-15820650D02*
X7193991Y-15792079D01*
X7193991Y-15792079D02*
X7184468Y-15773031D01*
X7184468Y-15773031D02*
X7174944Y-15744460D01*
X7174944Y-15744460D02*
X7165420Y-15696841D01*
X7165420Y-15696841D02*
X7165420Y-15658746D01*
X7165420Y-15658746D02*
X7174944Y-15611127D01*
X7174944Y-15611127D02*
X7184468Y-15582555D01*
X7184468Y-15582555D02*
X7193991Y-15563508D01*
X7193991Y-15563508D02*
X7213039Y-15534936D01*
X7213039Y-15534936D02*
X7222563Y-15525412D01*
X7403515Y-15753984D02*
X7289229Y-15753984D01*
X7346372Y-15753984D02*
X7346372Y-15553984D01*
X7346372Y-15553984D02*
X7327325Y-15582555D01*
X7327325Y-15582555D02*
X7308277Y-15601603D01*
X7308277Y-15601603D02*
X7289229Y-15611127D01*
X7574944Y-15553984D02*
X7536848Y-15553984D01*
X7536848Y-15553984D02*
X7517801Y-15563508D01*
X7517801Y-15563508D02*
X7508277Y-15573031D01*
X7508277Y-15573031D02*
X7489229Y-15601603D01*
X7489229Y-15601603D02*
X7479706Y-15639698D01*
X7479706Y-15639698D02*
X7479706Y-15715888D01*
X7479706Y-15715888D02*
X7489229Y-15734936D01*
X7489229Y-15734936D02*
X7498753Y-15744460D01*
X7498753Y-15744460D02*
X7517801Y-15753984D01*
X7517801Y-15753984D02*
X7555896Y-15753984D01*
X7555896Y-15753984D02*
X7574944Y-15744460D01*
X7574944Y-15744460D02*
X7584468Y-15734936D01*
X7584468Y-15734936D02*
X7593991Y-15715888D01*
X7593991Y-15715888D02*
X7593991Y-15668269D01*
X7593991Y-15668269D02*
X7584468Y-15649222D01*
X7584468Y-15649222D02*
X7574944Y-15639698D01*
X7574944Y-15639698D02*
X7555896Y-15630174D01*
X7555896Y-15630174D02*
X7517801Y-15630174D01*
X7517801Y-15630174D02*
X7498753Y-15639698D01*
X7498753Y-15639698D02*
X7489229Y-15649222D01*
X7489229Y-15649222D02*
X7479706Y-15668269D01*
X7832087Y-15753984D02*
X7832087Y-15553984D01*
X7917801Y-15753984D02*
X7917801Y-15649222D01*
X7917801Y-15649222D02*
X7908277Y-15630174D01*
X7908277Y-15630174D02*
X7889230Y-15620650D01*
X7889230Y-15620650D02*
X7860658Y-15620650D01*
X7860658Y-15620650D02*
X7841610Y-15630174D01*
X7841610Y-15630174D02*
X7832087Y-15639698D01*
X8041610Y-15753984D02*
X8022563Y-15744460D01*
X8022563Y-15744460D02*
X8013039Y-15734936D01*
X8013039Y-15734936D02*
X8003515Y-15715888D01*
X8003515Y-15715888D02*
X8003515Y-15658746D01*
X8003515Y-15658746D02*
X8013039Y-15639698D01*
X8013039Y-15639698D02*
X8022563Y-15630174D01*
X8022563Y-15630174D02*
X8041610Y-15620650D01*
X8041610Y-15620650D02*
X8070182Y-15620650D01*
X8070182Y-15620650D02*
X8089230Y-15630174D01*
X8089230Y-15630174D02*
X8098753Y-15639698D01*
X8098753Y-15639698D02*
X8108277Y-15658746D01*
X8108277Y-15658746D02*
X8108277Y-15715888D01*
X8108277Y-15715888D02*
X8098753Y-15734936D01*
X8098753Y-15734936D02*
X8089230Y-15744460D01*
X8089230Y-15744460D02*
X8070182Y-15753984D01*
X8070182Y-15753984D02*
X8041610Y-15753984D01*
X8222563Y-15753984D02*
X8203515Y-15744460D01*
X8203515Y-15744460D02*
X8193991Y-15725412D01*
X8193991Y-15725412D02*
X8193991Y-15553984D01*
X8374944Y-15744460D02*
X8355896Y-15753984D01*
X8355896Y-15753984D02*
X8317801Y-15753984D01*
X8317801Y-15753984D02*
X8298753Y-15744460D01*
X8298753Y-15744460D02*
X8289230Y-15725412D01*
X8289230Y-15725412D02*
X8289230Y-15649222D01*
X8289230Y-15649222D02*
X8298753Y-15630174D01*
X8298753Y-15630174D02*
X8317801Y-15620650D01*
X8317801Y-15620650D02*
X8355896Y-15620650D01*
X8355896Y-15620650D02*
X8374944Y-15630174D01*
X8374944Y-15630174D02*
X8384468Y-15649222D01*
X8384468Y-15649222D02*
X8384468Y-15668269D01*
X8384468Y-15668269D02*
X8289230Y-15687317D01*
X8460658Y-15744460D02*
X8479706Y-15753984D01*
X8479706Y-15753984D02*
X8517801Y-15753984D01*
X8517801Y-15753984D02*
X8536849Y-15744460D01*
X8536849Y-15744460D02*
X8546373Y-15725412D01*
X8546373Y-15725412D02*
X8546373Y-15715888D01*
X8546373Y-15715888D02*
X8536849Y-15696841D01*
X8536849Y-15696841D02*
X8517801Y-15687317D01*
X8517801Y-15687317D02*
X8489230Y-15687317D01*
X8489230Y-15687317D02*
X8470182Y-15677793D01*
X8470182Y-15677793D02*
X8460658Y-15658746D01*
X8460658Y-15658746D02*
X8460658Y-15649222D01*
X8460658Y-15649222D02*
X8470182Y-15630174D01*
X8470182Y-15630174D02*
X8489230Y-15620650D01*
X8489230Y-15620650D02*
X8517801Y-15620650D01*
X8517801Y-15620650D02*
X8536849Y-15630174D01*
X8613039Y-15830174D02*
X8622563Y-15820650D01*
X8622563Y-15820650D02*
X8641611Y-15792079D01*
X8641611Y-15792079D02*
X8651134Y-15773031D01*
X8651134Y-15773031D02*
X8660658Y-15744460D01*
X8660658Y-15744460D02*
X8670182Y-15696841D01*
X8670182Y-15696841D02*
X8670182Y-15658746D01*
X8670182Y-15658746D02*
X8660658Y-15611127D01*
X8660658Y-15611127D02*
X8651134Y-15582555D01*
X8651134Y-15582555D02*
X8641611Y-15563508D01*
X8641611Y-15563508D02*
X8622563Y-15534936D01*
X8622563Y-15534936D02*
X8613039Y-15525412D01*
M02*
