M48
; DRILL file {KiCad 8.0.6} date 2024-12-21T10:40:21+0530
; FORMAT={-:-/ absolute / inch / decimal}
; #@! TF.CreationDate,2024-12-21T10:40:21+05:30
; #@! TF.GenerationSoftware,Kicad,Pcbnew,8.0.6
; #@! TF.FileFunction,Plated,1,2,PTH
FMAT,2
INCH
; #@! TA.AperFunction,Plated,PTH,ViaDrill
T1C0.0118
; #@! TA.AperFunction,Plated,PTH,ComponentDrill
T2C0.0315
; #@! TA.AperFunction,Plated,PTH,ComponentDrill
T3C0.0354
; #@! TA.AperFunction,Plated,PTH,ComponentDrill
T4C0.0394
; #@! TA.AperFunction,Plated,PTH,ComponentDrill
T5C0.0433
; #@! TA.AperFunction,Plated,PTH,ComponentDrill
T6C0.0512
%
G90
G05
T1
X2.0746Y-4.6646
X2.1791Y-4.1079
X2.9482Y-4.2587
X3.5583Y-3.2343
X4.5254Y-4.2587
X4.6723Y-4.1079
T2
X4.8228Y-2.1138
X4.8228Y-2.4138
T3
X4.6939Y-1.6929
X4.7939Y-1.6929
T4
X1.7997Y-2.7362
X1.7997Y-2.8362
X1.7997Y-2.9362
X1.7997Y-3.0362
X1.7997Y-3.1362
X1.7997Y-3.2362
X1.7997Y-3.3362
X1.7997Y-3.4362
X1.9882Y-2.7252
X1.9882Y-2.8252
X1.9882Y-2.9252
X1.9882Y-3.0252
X1.9882Y-3.1252
X1.9882Y-3.2252
X1.9882Y-3.3252
X1.9882Y-3.4252
X1.9882Y-4.2213
X1.9882Y-4.3213
X1.9882Y-4.4213
X1.9882Y-4.5213
X1.9882Y-4.6213
X1.9882Y-4.7213
X1.9882Y-4.8213
X1.9882Y-4.9213
X2.8882Y-2.7252
X2.8882Y-2.8252
X2.8882Y-2.9252
X2.8882Y-3.0252
X2.8882Y-3.1252
X2.8882Y-3.2252
X2.8882Y-3.3252
X2.8882Y-3.4252
X2.8882Y-4.2213
X2.8882Y-4.3213
X2.8882Y-4.4213
X2.8882Y-4.5213
X2.8882Y-4.6213
X2.8882Y-4.7213
X2.8882Y-4.8213
X2.8882Y-4.9213
X3.0709Y-2.7346
X3.0709Y-2.8346
X3.0709Y-2.9346
X3.0709Y-3.0346
X3.0709Y-3.1346
X3.0709Y-3.2346
X3.0709Y-3.3346
X3.0709Y-3.4346
X3.6811Y-2.7252
X3.6811Y-2.8252
X3.6811Y-2.9252
X3.6811Y-3.0252
X3.6811Y-3.1252
X3.6811Y-3.2252
X3.6811Y-3.3252
X3.6811Y-3.4252
X3.6811Y-4.2213
X3.6811Y-4.3213
X3.6811Y-4.4213
X3.6811Y-4.5213
X3.6811Y-4.6213
X3.6811Y-4.7213
X3.6811Y-4.8213
X3.6811Y-4.9213
X4.5811Y-2.7252
X4.5811Y-2.8252
X4.5811Y-2.9252
X4.5811Y-3.0252
X4.5811Y-3.1252
X4.5811Y-3.2252
X4.5811Y-3.3252
X4.5811Y-3.4252
X4.5811Y-4.2213
X4.5811Y-4.3213
X4.5811Y-4.4213
X4.5811Y-4.5213
X4.5811Y-4.6213
X4.5811Y-4.7213
X4.5811Y-4.8213
X4.5811Y-4.9213
X4.8031Y-3.0465
X4.8031Y-3.1465
X4.8031Y-3.2465
X4.8031Y-3.3465
X4.8031Y-3.4465
X4.8031Y-3.8159
X4.8031Y-3.9159
X4.8031Y-4.0159
X4.8031Y-4.1159
X4.8031Y-4.2159
X4.8031Y-4.5837
X4.8031Y-4.6837
X4.8031Y-4.7837
X4.8031Y-4.8837
X4.8031Y-4.9837
T5
X1.4961Y-3.8976
X1.4961Y-4.0748
X1.752Y-3.8976
X1.752Y-4.0748
T6
X5.0787Y-2.126
X5.0787Y-2.3228
X5.0787Y-2.5197
X5.0787Y-2.7165
X5.0787Y-2.9134
X5.0787Y-3.1102
X5.0787Y-3.3071
X5.0787Y-3.5039
X5.0787Y-3.8583
X5.0787Y-4.0551
X5.0787Y-4.252
X5.0787Y-4.4488
X5.0787Y-4.6457
X5.0787Y-4.8425
X5.0787Y-5.0394
X5.0787Y-5.2362
M30
