%TF.GenerationSoftware,KiCad,Pcbnew,8.0.6*%
%TF.CreationDate,2024-12-16T01:29:45+05:30*%
%TF.ProjectId,esp_Extension,6573705f-4578-4746-956e-73696f6e2e6b,rev?*%
%TF.SameCoordinates,Original*%
%TF.FileFunction,Drillmap*%
%TF.FilePolarity,Positive*%
%FSLAX45Y45*%
G04 Gerber Fmt 4.5, Leading zero omitted, Abs format (unit mm)*
G04 Created by KiCad (PCBNEW 8.0.6) date 2024-12-16 01:29:45*
%MOMM*%
%LPD*%
G01*
G04 APERTURE LIST*
%ADD10C,0.050000*%
%ADD11C,0.200000*%
G04 APERTURE END LIST*
D10*
X4600000Y-6900000D02*
X5050000Y-6900000D01*
X3650000Y-3750000D02*
X13550000Y-3750000D01*
X13550000Y-13700000D01*
X3650000Y-13700000D01*
X3650000Y-3750000D01*
D11*
X3908277Y-14013984D02*
X3908277Y-13813984D01*
X3908277Y-13813984D02*
X3955896Y-13813984D01*
X3955896Y-13813984D02*
X3984467Y-13823508D01*
X3984467Y-13823508D02*
X4003515Y-13842555D01*
X4003515Y-13842555D02*
X4013039Y-13861603D01*
X4013039Y-13861603D02*
X4022562Y-13899698D01*
X4022562Y-13899698D02*
X4022562Y-13928269D01*
X4022562Y-13928269D02*
X4013039Y-13966365D01*
X4013039Y-13966365D02*
X4003515Y-13985412D01*
X4003515Y-13985412D02*
X3984467Y-14004460D01*
X3984467Y-14004460D02*
X3955896Y-14013984D01*
X3955896Y-14013984D02*
X3908277Y-14013984D01*
X4108277Y-14013984D02*
X4108277Y-13880650D01*
X4108277Y-13918746D02*
X4117801Y-13899698D01*
X4117801Y-13899698D02*
X4127324Y-13890174D01*
X4127324Y-13890174D02*
X4146372Y-13880650D01*
X4146372Y-13880650D02*
X4165420Y-13880650D01*
X4232086Y-14013984D02*
X4232086Y-13880650D01*
X4232086Y-13813984D02*
X4222563Y-13823508D01*
X4222563Y-13823508D02*
X4232086Y-13833031D01*
X4232086Y-13833031D02*
X4241610Y-13823508D01*
X4241610Y-13823508D02*
X4232086Y-13813984D01*
X4232086Y-13813984D02*
X4232086Y-13833031D01*
X4355896Y-14013984D02*
X4336848Y-14004460D01*
X4336848Y-14004460D02*
X4327324Y-13985412D01*
X4327324Y-13985412D02*
X4327324Y-13813984D01*
X4460658Y-14013984D02*
X4441610Y-14004460D01*
X4441610Y-14004460D02*
X4432086Y-13985412D01*
X4432086Y-13985412D02*
X4432086Y-13813984D01*
X4689229Y-14013984D02*
X4689229Y-13813984D01*
X4689229Y-13813984D02*
X4755896Y-13956841D01*
X4755896Y-13956841D02*
X4822563Y-13813984D01*
X4822563Y-13813984D02*
X4822563Y-14013984D01*
X5003515Y-14013984D02*
X5003515Y-13909222D01*
X5003515Y-13909222D02*
X4993991Y-13890174D01*
X4993991Y-13890174D02*
X4974944Y-13880650D01*
X4974944Y-13880650D02*
X4936848Y-13880650D01*
X4936848Y-13880650D02*
X4917801Y-13890174D01*
X5003515Y-14004460D02*
X4984467Y-14013984D01*
X4984467Y-14013984D02*
X4936848Y-14013984D01*
X4936848Y-14013984D02*
X4917801Y-14004460D01*
X4917801Y-14004460D02*
X4908277Y-13985412D01*
X4908277Y-13985412D02*
X4908277Y-13966365D01*
X4908277Y-13966365D02*
X4917801Y-13947317D01*
X4917801Y-13947317D02*
X4936848Y-13937793D01*
X4936848Y-13937793D02*
X4984467Y-13937793D01*
X4984467Y-13937793D02*
X5003515Y-13928269D01*
X5098753Y-13880650D02*
X5098753Y-14080650D01*
X5098753Y-13890174D02*
X5117801Y-13880650D01*
X5117801Y-13880650D02*
X5155896Y-13880650D01*
X5155896Y-13880650D02*
X5174944Y-13890174D01*
X5174944Y-13890174D02*
X5184467Y-13899698D01*
X5184467Y-13899698D02*
X5193991Y-13918746D01*
X5193991Y-13918746D02*
X5193991Y-13975888D01*
X5193991Y-13975888D02*
X5184467Y-13994936D01*
X5184467Y-13994936D02*
X5174944Y-14004460D01*
X5174944Y-14004460D02*
X5155896Y-14013984D01*
X5155896Y-14013984D02*
X5117801Y-14013984D01*
X5117801Y-14013984D02*
X5098753Y-14004460D01*
X5279705Y-13994936D02*
X5289229Y-14004460D01*
X5289229Y-14004460D02*
X5279705Y-14013984D01*
X5279705Y-14013984D02*
X5270182Y-14004460D01*
X5270182Y-14004460D02*
X5279705Y-13994936D01*
X5279705Y-13994936D02*
X5279705Y-14013984D01*
X5279705Y-13890174D02*
X5289229Y-13899698D01*
X5289229Y-13899698D02*
X5279705Y-13909222D01*
X5279705Y-13909222D02*
X5270182Y-13899698D01*
X5270182Y-13899698D02*
X5279705Y-13890174D01*
X5279705Y-13890174D02*
X5279705Y-13909222D01*
M02*
